<svg width="40" height="40" viewBox="0 0 40 40" xmlns="http://www.w3.org/2000/svg"><title>ic-arts-heritage</title><g fill="none" fill-rule="evenodd"><path d="M0 0h40v40H0z"/><circle fill="#CCC" cx="20" cy="20" r="20"/><path d="M6 6h28v28H6"/><path d="M14.167 22.333c-1.937 0-3.5 1.564-3.5 3.5 0 1.53-1.354 2.334-2.334 2.334C9.407 29.59 11.238 30.5 13 30.5c2.578 0 4.667-2.088 4.667-4.667 0-1.936-1.564-3.5-3.5-3.5zm15.995-10.93l-1.564-1.565c-.455-.455-1.19-.455-1.645 0L16.5 20.292l3.208 3.208 10.454-10.453c.455-.455.455-1.19 0-1.645z" fill="#FFF" fill-rule="nonzero"/></g></svg>