<?xml version="1.0" encoding="utf-8"?>
<!-- Generator: Adobe Illustrator 16.0.0, SVG Export Plug-In . SVG Version: 6.00 Build 0)  -->
<!DOCTYPE svg PUBLIC "-//W3C//DTD SVG 1.1//EN" "http://www.w3.org/Graphics/SVG/1.1/DTD/svg11.dtd">
<svg version="1.1" id="Layer_1" xmlns="http://www.w3.org/2000/svg" xmlns:xlink="http://www.w3.org/1999/xlink" x="0px" y="0px"
	 width="40px" height="40px" viewBox="0 0 40 40" enable-background="new 0 0 40 40" xml:space="preserve">
<title>ic-animal-welfare-hp</title>
<g>
	<path class="fill-color" fill="#666666" d="M34.514,30.25c0.693,1.76,0.645,3.58-0.141,5.262c-0.896,1.928-2.896,2.988-5.635,2.988h-0.002
		c-2.784,0-5.768-1.057-7.359-2.037c-1.602-0.984-2.298-1.16-2.47-1.189c-0.106,0.013-0.215,0.013-0.324,0
		c-0.147,0.025-0.84,0.191-2.46,1.189c-1.594,0.98-4.578,2.037-7.362,2.037c-2.738,0-4.74-1.061-5.636-2.988
		c-0.785-1.683-0.832-3.503-0.14-5.262c0.932-2.359,2.98-4.043,4.6-4.665c1.393-0.536,2.065-2.022,3.453-5.333
		c0.238-0.57,0.494-1.18,0.775-1.832c1.97-4.565,5.602-4.92,6.667-4.92c0.108,0,0.198,0.003,0.268,0.007
		c0.07-0.004,0.16-0.007,0.267-0.007c1.066,0,4.696,0.355,6.667,4.92c0.28,0.652,0.537,1.263,0.777,1.833
		c1.391,3.31,2.061,4.796,3.455,5.332c1.618,0.622,3.667,2.306,4.598,4.665H34.514z M6.535,23.354
		c2.623-0.656,4.07-3.37,3.223-6.044c-0.71-2.244-2.807-3.81-5.104-3.81c-0.402,0-0.802,0.05-1.19,0.146
		c-2.622,0.657-4.068,3.37-3.222,6.045c0.71,2.244,2.808,3.81,5.104,3.81C5.748,23.5,6.148,23.45,6.535,23.354L6.535,23.354z
		 M12.82,13.5c0.24,0,0.484-0.022,0.722-0.065c1.35-0.247,2.53-1.193,3.24-2.594c0.658-1.303,0.873-2.895,0.606-4.483
		C16.865,3.253,14.675,1,12.18,1c-0.24,0-0.484,0.022-0.722,0.066c-1.35,0.246-2.53,1.192-3.24,2.594
		C7.56,4.963,7.345,6.556,7.612,8.143C8.134,11.247,10.324,13.5,12.82,13.5L12.82,13.5z M39.508,16.018
		c-0.59-1.18-1.673-2.046-2.975-2.372c-0.387-0.097-0.787-0.146-1.19-0.146c-2.294,0-4.393,1.566-5.1,3.808
		c-0.847,2.677,0.6,5.39,3.22,6.045c0.389,0.098,0.788,0.146,1.189,0.146c2.296,0,4.395-1.566,5.104-3.808
		C40.152,18.438,40.064,17.132,39.508,16.018z M23.958,13.435c0.237,0.043,0.479,0.065,0.724,0.065c2.495,0,4.687-2.253,5.209-5.357
		c0.574-3.41-1.152-6.585-3.848-7.078C25.805,1.022,25.561,1,25.32,1c-2.496,0-4.688,2.253-5.21,5.357
		C19.536,9.767,21.262,12.942,23.958,13.435z"/>
	<path fill="none" d="M0,0h40v40H0V0z"/>
</g>
</svg>
