<?xml version="1.0" encoding="utf-8"?>
<!-- Generator: Adobe Illustrator 16.0.0, SVG Export Plug-In . SVG Version: 6.00 Build 0)  -->
<!DOCTYPE svg PUBLIC "-//W3C//DTD SVG 1.1//EN" "http://www.w3.org/Graphics/SVG/1.1/DTD/svg11.dtd">
<svg version="1.1" id="Layer_1" xmlns="http://www.w3.org/2000/svg" xmlns:xlink="http://www.w3.org/1999/xlink" x="0px" y="0px"
	 width="40px" height="40px" viewBox="0 0 40 40" enable-background="new 0 0 40 40" xml:space="preserve">
<title>ic-arts-heritage-hp</title>
<g>
	<path fill="none" d="M0,0h40v40H0"/>
	<path class="fill-color" fill="#666666" d="M11.667,23.333c-2.767,0-5,2.233-5,5c0,2.185-1.934,3.334-3.334,3.334C4.867,33.7,7.483,35,10,35
		c3.683,0,6.667-2.982,6.667-6.667C16.667,25.566,14.433,23.333,11.667,23.333z M34.518,7.717l-2.234-2.234
		c-0.65-0.65-1.7-0.65-2.35,0L15,20.417L19.583,25l14.935-14.933C35.167,9.417,35.167,8.367,34.518,7.717z"/>
	<path fill="none" d="M0,0h40v40H0V0z"/>
</g>
</svg>
