<?xml version="1.0" encoding="utf-8"?>
<!-- Generator: Adobe Illustrator 23.0.1, SVG Export Plug-In . SVG Version: 6.00 Build 0)  -->
<svg width="40" height="40" version="1.1" id="Layer_1" xmlns="http://www.w3.org/2000/svg" xmlns:xlink="http://www.w3.org/1999/xlink" x="0px" y="0px"
	 viewBox="0 0 40 40" xml:space="preserve">
<g>
	<path fill="none" d="M0,0h40v40H0V0z"/>
	<g transform="translate(0 1)">
		<circle class="fill-color" fill="#666666" cx="29.1" cy="5.1" r="4.1"/>
		<path fill="#666666" class="fill-color" d="M39.7,21.8l-6.4-10.9c-0.3-0.5-0.9-0.9-1.4-0.9h-5.4c-0.5,0-1.1,0.4-1.4,0.9l-4.8,8.2L15,9.9
			C14.6,9.3,14,9,13.4,9H8.2C7.6,9,7,9.3,6.6,9.9L0.3,20.9c-0.5,0.9-0.2,2,0.7,2.5c0.3,0.2,0.6,0.2,0.9,0.2c0.6,0,1.2-0.3,1.6-0.9
			l2.8-4.8v2.1L4.9,29c-0.1,0.8,0.5,1.4,1.3,1.4V36c0,1,0.8,1.9,1.9,2c1.1,0,2-0.8,2-1.9v-5.6h1.5V36c0,1,0.8,1.9,1.9,2
			c1.1,0,2-0.8,2-1.9v-5.6c0.8,0,1.4-0.7,1.3-1.4l-1.3-9.1v-2l2.8,4.8c0.1,0.2,0.8,1.3,1.2,1.6c0.3,0.2,0.6,0.2,0.9,0.2
			c0.6,0,1.2-0.3,1.6-0.9l2.7-4.7l0,16.1c0,1.1,0.9,1.9,1.9,1.9h0c1.1,0,1.9-0.9,1.9-1.9l0-9.7c0-0.4,0.3-0.8,0.7-0.8
			c0.4,0,0.8,0.3,0.8,0.8V35c0,1,0.8,1.9,1.9,2c1.1,0,2-0.8,2-1.9V18.9l2.7,4.7c0.3,0.6,1,0.9,1.6,0.9c0.3,0,0.6-0.1,0.9-0.2
			C39.9,23.8,40.2,22.6,39.7,21.8L39.7,21.8z M4.3,8.2l1-0.1c0.6-0.1,1-0.6,0.9-1.2C6.1,6.1,6,4.8,6.7,4.1c0,0,0,0.1,0,0.1
			c0,2.3,1.9,4.1,4.1,4.1c2.3,0,4.1-1.9,4.1-4.1V4.1c0.7,0.8,0.7,2,0.5,2.9c-0.1,0.6,0.3,1.1,0.9,1.2l1,0.1c0.5,0,1-0.3,1.1-0.9
			c0.1-1.3,0.1-3.3-0.6-4.1c-1.1-1.2-2.5-1.2-3.3-1C13.9,0.9,12.5,0,10.9,0c-1.6,0-3,0.9-3.7,2.2C6.3,2.1,5,2.1,3.9,3.3
			C3.1,4.1,3.1,6,3.2,7.4C3.3,7.9,3.8,8.3,4.3,8.2z"/>
	</g>
</g>
</svg>
