<?xml version="1.0" encoding="utf-8"?>
<!-- Generator: Adobe Illustrator 23.0.1, SVG Export Plug-In . SVG Version: 6.00 Build 0)  -->
<svg width="40" height="40" version="1.1" id="Layer_1" xmlns="http://www.w3.org/2000/svg" xmlns:xlink="http://www.w3.org/1999/xlink" x="0px" y="0px"
	 viewBox="0 0 40 40" style="enable-background:new 0 0 40 40;" xml:space="preserve">
<style type="text/css">
	.st0{fill:none;}
	.st1{fill:#666666;}
</style>
<title>ic-community-hp</title>
<g>
	<path class="st0" d="M0,0h40v40H0V0z"/>
	<g>
		<path class="st1 fill-color" d="M20,15c-4.3,0-7.5-3.3-7.5-7.5S15.8,0,20,0s7.5,3.3,7.5,7.5S24.3,15,20,15z M25,40H15V30l-5-5v-7.5h20V25
			l-5,5 M5,12.5c-2.8,0-5-2.3-5-5s2.3-5,5-5s5,2.3,5,5S7.8,12.5,5,12.5z M7.5,26V15H0v7.5L2.5,25v10H10v-6.5 M35,12.5
			c2.8,0,5-2.3,5-5s-2.3-5-5-5s-5,2.3-5,5S32.3,12.5,35,12.5z M32.5,26V15H40v7.5L37.5,25v10H30v-6.5"/>
	</g>
</g>
</svg>
