<?xml version="1.0" encoding="utf-8"?>
<!-- Generator: Adobe Illustrator 23.0.1, SVG Export Plug-In . SVG Version: 6.00 Build 0)  -->
<svg width="40" height="40" version="1.1" id="Layer_1" xmlns="http://www.w3.org/2000/svg" xmlns:xlink="http://www.w3.org/1999/xlink" x="0px" y="0px"
	 viewBox="0 0 40 40" style="enable-background:new 0 0 40 40;" xml:space="preserve">
<style type="text/css">
	.st0{fill:none;}
	.st1{fill:#666666;}
</style>
<title>ic-disability-hp</title>
<g>
	<path class="st0" d="M0,0h40v40H0V0z"/>
	<g>
		<path class="st1 fill-color" d="M37.2,33.9l-5-10c-0.4-0.8-1.3-1.4-2.2-1.4H20v-5h7.5c1.4,0,2.5-1.1,2.5-2.5s-1.1-2.5-2.5-2.5H20V9.3
			c1.5-0.9,2.5-2.5,2.5-4.3c0-2.8-2.2-5-5-5c-2.8,0-5,2.2-5,5c0,1.8,1,3.4,2.5,4.3V25c0,1.4,1.1,2.5,2.5,2.5h11l4.3,8.6
			c0.4,0.9,1.3,1.4,2.2,1.4c0.4,0,0.8-0.1,1.1-0.3C37.4,36.6,37.9,35.1,37.2,33.9L37.2,33.9z"/>
		<path class="st1 fill-color" d="M12.6,35c-4.2,0-7.6-3.4-7.6-7.5S8.4,20,12.6,20v-5C5.7,15,0,20.6,0,27.5S5.7,40,12.6,40
			c6.1,0,11.2-4.3,12.4-10h-5.3C18.7,32.9,15.9,35,12.6,35z"/>
	</g>
</g>
</svg>
