<?xml version="1.0" encoding="utf-8"?>
<!-- Generator: Adobe Illustrator 23.0.1, SVG Export Plug-In . SVG Version: 6.00 Build 0)  -->
<svg width="40" height="40" version="1.1" id="Layer_1" xmlns="http://www.w3.org/2000/svg" xmlns:xlink="http://www.w3.org/1999/xlink" x="0px" y="0px"
	 viewBox="0 0 40 40" style="enable-background:new 0 0 40 40;" xml:space="preserve">
<style type="text/css">
	.st0{fill:none;}
	.st1{fill:#666666;}
</style>
<title>ic-education-hp</title>
<g>
	<path class="st0" d="M0,0h40v40H0V0z"/>
	<g>
		<path class="st1 fill-color " d="M19.2,31.3V4C14,2.9,8.9,2.4,3.7,4.8v27.3C8.9,29.7,14,30.2,19.2,31.3z M36.3,32.1V4.8
			C31.1,2.4,26,2.9,20.8,4v27.3C26,30.2,31.1,29.7,36.3,32.1L36.3,32.1z"/>
		<path class="st1 fill-color " d="M37.9,8.1v26.6C34,32.5,30.8,32,28.2,32c-2.4,0-6.6,0.7-8.2,1.1c-1.8-0.5-6-1.2-8.2-1.1
			c-2.7,0.1-5.1,0.3-9.6,2.7V8.1H0v27.7h40V8.1L37.9,8.1L37.9,8.1z"/>
	</g>
</g>
</svg>
