<?xml version="1.0" encoding="utf-8"?>
<!-- Generator: Adobe Illustrator 23.0.1, SVG Export Plug-In . SVG Version: 6.00 Build 0)  -->
<svg width="40" height="40" version="1.1" id="Layer_1" xmlns="http://www.w3.org/2000/svg" xmlns:xlink="http://www.w3.org/1999/xlink" x="0px" y="0px"
	 viewBox="0 0 40 40" style="enable-background:new 0 0 40 40;" xml:space="preserve">
<style type="text/css">
	.st0{fill:none;}
	.st1{fill:#666666;}
</style>
<title>ic-elderly-hp</title>
<g>
	<path class="st0" d="M0,0h40v40H0V0z"/>
	<path class="st1 fill-color" d="M28.9,21c1.7,0,3.1,1.4,3.1,3v15.1c0,1.2-1.8,1.2-1.8,0V24c0-0.7-0.6-1.2-1.3-1.2C27.7,22.8,27.7,21,28.9,21z
		 M20,3c0,1.7-1.3,3-3,3c-1.7,0-3-1.3-3-3s1.3-3,3-3C18.7,0,20,1.3,20,3z M19.9,19.3l1.3,10.6c0,0,0.1,0.7,0.1,1.5l0,7
		c0,2.3-3.6,2.3-3.6,0l0-7.4L17,25.4c0-0.2-0.3-0.2-0.3,0l-0.6,5.1c-0.1,0.6-0.1,0.8-0.3,1.4c-0.1,0.3-1.7,6.7-1.7,6.7
		c-0.6,2.2-4.1,1.4-3.5-0.8l1.9-7.3l1.2-11.3l-0.1-6.1l-1.6,2.1l-1.2,6.1c-0.4,1.9-3,1.2-2.6-0.4c0.6-2.7,0.8-4.3,1-5.3
		c0.3-1.4,0.4-1.9,1.4-3.2c1-1.3,2.3-3,3.5-4.6C14.3,7.4,14.8,7,15.5,7h2.6c0.8,0,1.4,0.5,1.7,1.1l3.8,8.3l3.7,2.9
		c1.7,1.2-0.2,3.2-1.6,2.1c-2.4-1.8-3.3-2.3-3.9-3c-0.5-0.6-0.9-1.4-1.9-3.2C19.9,15.2,19.9,19.2,19.9,19.3L19.9,19.3z"/>
</g>
</svg>
