<?xml version="1.0" encoding="utf-8"?>
<!-- Generator: Adobe Illustrator 16.0.0, SVG Export Plug-In . SVG Version: 6.00 Build 0)  -->
<!DOCTYPE svg PUBLIC "-//W3C//DTD SVG 1.1//EN" "http://www.w3.org/Graphics/SVG/1.1/DTD/svg11.dtd">
<svg version="1.1" id="Layer_1" xmlns="http://www.w3.org/2000/svg" xmlns:xlink="http://www.w3.org/1999/xlink" x="0px" y="0px"
	 width="40px" height="40px" viewBox="0 0 40 40" enable-background="new 0 0 40 40" xml:space="preserve">
<title>ic-environment-hp</title>
<g>
	<path fill="none" d="M0,0h40v40H0V0z"/>
	<path class="fill-color" fill="#666666" d="M28.395,6.246c-4.271,1.128-5.754,4.824-5.506,6.37c0.077-0.048,0.154-0.094,0.233-0.144
		c0.375-0.23,0.784-0.45,1.207-0.676c0.42-0.227,0.874-0.438,1.33-0.652c0.229-0.108,0.47-0.202,0.71-0.3l0.357-0.147
		c0.155-0.06,0.25-0.087,0.379-0.13l0.72-0.242c0.25-0.072,0.5-0.142,0.743-0.213c0.498-0.138,0.98-0.26,1.447-0.357
		c0.936-0.214,1.814-0.37,2.57-0.487c1.514-0.232,2.546-0.276,2.546-0.276l-0.649,0.28c-0.414,0.173-1.006,0.403-1.721,0.68
		c-0.357,0.13-0.742,0.273-1.152,0.424l-1.285,0.458c-0.442,0.156-0.895,0.32-1.36,0.486c-0.452,0.154-0.925,0.336-1.399,0.52
		c-0.442,0.166-0.902,0.388-1.354,0.567c-0.445,0.205-1.214,0.473-1.646,0.66c-0.524,0.22-0.855,0.34-1.188,0.517
		c-3.725,2.186-5.375,6.055-6.38,10.15c-0.18-3.847-0.982-7.578-3.743-10.331l0.01-0.005c-0.375-0.353-0.763-0.732-1.163-1.137
		c-0.33-0.34-0.676-0.68-1.014-1.04c-0.346-0.34-0.687-0.72-1.034-1.045c-0.37-0.352-0.737-0.7-1.098-1.02
		c-0.365-0.328-0.722-0.653-1.07-0.97C7.532,7.871,7.191,7.564,6.869,7.271c-0.32-0.296-0.625-0.577-0.903-0.836
		C5.411,5.908,4.949,5.467,4.633,5.147L4.14,4.64c0,0,0.935,0.437,2.247,1.233c0.654,0.4,1.407,0.88,2.19,1.437
		c0.397,0.27,0.795,0.568,1.202,0.885l0.605,0.482l0.574,0.5c0.1,0.09,0.18,0.15,0.298,0.265l0.277,0.275
		c0.185,0.182,0.37,0.362,0.54,0.55c0.345,0.37,0.682,0.74,0.986,1.113c0.306,0.37,0.6,0.73,0.86,1.088
		c0.054,0.077,0.105,0.147,0.16,0.222c0.816-1.333,0.848-5.32-2.67-8.002C7.576,1.77,2.235,3.078,0,2
		c2.258,3.474,1.824,5.793,5.618,9.606c2.535,2.55,4.902,2.708,6.497,2.264c3.243,3.14,3.75,7.928,3.75,12.51
		c-0.33-0.271-0.734-0.483-1.2-0.483c-1.312,0-2.268,0.742-2.726,1.803c-2.89-0.99-4.81,1.31-4.976,3.244
		c-1.375-0.514-3.12,1.076-3.12,2.459c0,1.365,1.073,2.47,2.416,2.527l21.272,0.037c0,0,2.266-1.23,2.266-2.566
		c0-1.399-1.13-2.536-2.521-2.536c-0.193,0-0.379,0.024-0.557,0.065c0.012-0.097-0.242-4.404-3.965-2.674
		c-0.29-1.348-0.67-2.359-2.904-2.359c-1.1,0-1.847,0.402-2.324,0.812c0.93-4.765,2.37-9.742,6.565-12.204
		c0.048-0.026,0.07-0.06,0.103-0.093c1.298,1.047,3.563,1.855,6.928,0.45c4.952-2.068,5.43-4.378,8.836-6.72
		C37.482,8.281,33.044,5.021,28.395,6.246L28.395,6.246z M16.802,27.557l0.25-0.188c-0.126,0.145-0.203,0.25-0.203,0.25
		l-0.048-0.064L16.802,27.557z"/>
</g>
</svg>
