<?xml version="1.0" encoding="utf-8"?>
<!-- Generator: Adobe Illustrator 16.0.0, SVG Export Plug-In . SVG Version: 6.00 Build 0)  -->
<!DOCTYPE svg PUBLIC "-//W3C//DTD SVG 1.1//EN" "http://www.w3.org/Graphics/SVG/1.1/DTD/svg11.dtd">
<svg version="1.1" id="Layer_1" xmlns="http://www.w3.org/2000/svg" xmlns:xlink="http://www.w3.org/1999/xlink" x="0px" y="0px"
	 width="40px" height="40px" viewBox="0 0 40 40" enable-background="new 0 0 40 40" xml:space="preserve">
<title>ic-health-hp</title>
<g>
	<path fill="none" d="M0,0h40v40H0V0z"/>
	<path class="fill-color" fill="#666666" d="M37.5,10H30V2.5C30,1,29,0,27.5,0h-15C11,0,10,1,10,2.5V10H2.5C1,10,0,11,0,12.5v25C0,39,1,40,2.5,40h35
		c1.5,0,2.5-1,2.5-2.5v-25C40,11,39,10,37.5,10z M15,5h10v5H15V5z M27.5,27.5h-5v5h-5v-5h-5v-5h5v-5h5v5h5V27.5z"/>
</g>
</svg>
