<?xml version="1.0" encoding="utf-8"?>
<!-- Generator: Adobe Illustrator 16.0.0, SVG Export Plug-In . SVG Version: 6.00 Build 0)  -->
<!DOCTYPE svg PUBLIC "-//W3C//DTD SVG 1.1//EN" "http://www.w3.org/Graphics/SVG/1.1/DTD/svg11.dtd">
<svg version="1.1" id="Layer_1" xmlns="http://www.w3.org/2000/svg" xmlns:xlink="http://www.w3.org/1999/xlink" x="0px" y="0px"
	 width="40px" height="40px" viewBox="0 0 40 40" enable-background="new 0 0 40 40" xml:space="preserve">
<title>ic-humanitarian-hp</title>
<g>
	<path fill="none" d="M0,0h40v40H0V0z"/>
	<path class="fill-color" fill="#666666" d="M0.406,15.947C0.339,16.272,0.281,16.6,0.23,16.931c-0.05,0.33-0.093,0.665-0.127,1
		C0.035,18.602,0,19.283,0,19.972c0,0.69,0.035,1.37,0.103,2.043c0.034,0.334,0.077,0.67,0.127,1s0.11,0.657,0.176,0.982
		c0.066,0.325,0.14,0.646,0.223,0.966c0.163,0.638,0.358,1.265,0.582,1.876c0.112,0.307,0.23,0.608,0.358,0.907
		c0.126,0.298,0.26,0.593,0.4,0.884c0.07,0.146,0.142,0.292,0.215,0.436c0.147,0.287,0.3,0.569,0.46,0.85
		c0.482,0.835,1.022,1.634,1.615,2.389c0.297,0.377,0.606,0.743,0.93,1.1c0.214,0.234,0.434,0.467,0.66,0.691
		c0.226,0.227,0.457,0.447,0.694,0.662c1.064,0.967,2.233,1.82,3.487,2.542c0.28,0.16,0.563,0.313,0.85,0.46
		c0.574,0.295,1.165,0.563,1.77,0.801c0.302,0.119,0.608,0.229,0.917,0.336c2.01,0.68,4.165,1.049,6.406,1.049
		c1.527,0,3.015-0.172,4.444-0.496c0.667-0.153,1.321-0.338,1.962-0.555c0.309-0.104,0.614-0.215,0.916-0.336
		c0.605-0.238,1.195-0.504,1.77-0.8c0.287-0.146,0.57-0.3,0.849-0.46c1.255-0.722,2.424-1.576,3.487-2.543
		c0.238-0.215,0.469-0.436,0.695-0.66c0.225-0.227,0.445-0.457,0.659-0.695c0.323-0.354,0.634-0.719,0.931-1.098
		c0.469-0.597,0.902-1.222,1.303-1.869c0.104-0.173,0.21-0.346,0.31-0.521c0.16-0.28,0.313-0.562,0.46-0.851
		c0.074-0.142,0.146-0.287,0.217-0.432c0.139-0.29,0.273-0.586,0.399-0.885c0.126-0.301,0.246-0.6,0.358-0.907
		c0.224-0.612,0.42-1.237,0.582-1.876c0.082-0.32,0.158-0.64,0.224-0.966c0.065-0.325,0.125-0.653,0.176-0.983
		c0.05-0.33,0.093-0.664,0.127-1c0.068-0.671,0.103-1.353,0.103-2.041c0-0.69-0.034-1.372-0.103-2.043
		c-0.034-0.335-0.077-0.668-0.127-1c-0.05-0.33-0.11-0.658-0.176-0.983c-0.067-0.324-0.14-0.647-0.224-0.966
		c-0.164-0.637-0.359-1.263-0.582-1.874c-0.057-0.153-0.114-0.306-0.174-0.457c-0.181-0.454-0.375-0.9-0.584-1.336
		c-0.07-0.146-0.143-0.29-0.217-0.434c-0.146-0.287-0.3-0.57-0.46-0.85c-0.481-0.835-1.022-1.634-1.614-2.388
		c-0.297-0.377-0.606-0.744-0.93-1.1c-0.214-0.235-0.434-0.466-0.66-0.692c-0.226-0.226-0.457-0.447-0.693-0.662
		c-0.459-0.416-0.937-0.81-1.43-1.183c-0.658-0.494-1.344-0.948-2.059-1.36c-0.28-0.16-0.563-0.313-0.85-0.46
		c-0.131-0.067-0.261-0.132-0.394-0.196c-0.157-0.078-0.317-0.153-0.478-0.226l-0.203-0.09c-0.23-0.1-0.461-0.197-0.694-0.29
		c-0.003,0-0.006,0-0.01-0.002c-0.248-0.098-0.5-0.19-0.755-0.28c-0.049-0.016-0.102-0.035-0.153-0.053
		c-0.59-0.2-1.194-0.373-1.81-0.518c-0.192-0.045-0.385-0.088-0.58-0.128c-0.141-0.03-0.28-0.055-0.42-0.08
		c-1.051-0.192-2.131-0.3-3.23-0.32C20.214,0.003,20.093,0,19.97,0c-0.207,0-0.413,0.004-0.618,0.01
		c-2.02,0.062-3.963,0.422-5.787,1.04c-0.31,0.104-0.616,0.216-0.918,0.335c-0.095,0.037-0.187,0.076-0.28,0.114
		c-0.207,0.085-0.413,0.172-0.617,0.264c-0.295,0.134-0.586,0.274-0.873,0.42c-0.287,0.148-0.57,0.302-0.85,0.462
		c-1.12,0.645-2.174,1.396-3.145,2.24c-0.115,0.1-0.23,0.2-0.342,0.303c-0.236,0.213-0.468,0.434-0.694,0.66
		C5.62,6.074,5.399,6.305,5.184,6.542C4.862,6.896,4.552,7.262,4.256,7.64c-0.593,0.754-1.133,1.553-1.614,2.39
		c-0.16,0.278-0.315,0.56-0.46,0.848c-0.075,0.144-0.147,0.288-0.217,0.434c-0.21,0.437-0.406,0.882-0.585,1.335
		c-0.06,0.15-0.118,0.303-0.174,0.456c-0.223,0.61-0.418,1.237-0.582,1.875c-0.08,0.32-0.156,0.642-0.222,0.967L0.406,15.947z
		 M16.588,1.372c0.04,0.066,0.072,0.142,0.168,0.172c0.187-0.097,0.373,0.006,0.58,0c0.2-0.008,0.38-0.1,0.6-0.065
		c0.39,0.06,0.936,0.442,1.244,0.235c0.078-0.052,0.06-0.143,0.13-0.278c0.055-0.11,0.142-0.23,0.195-0.363
		c0.156-0.004,0.31-0.006,0.468-0.006c1.292,0,2.552,0.13,3.773,0.378c-0.051,0.135-0.221,0.075-0.359,0.14
		c-0.133,0.06-0.181,0.188-0.322,0.214c-0.391,0.074-0.713-0.097-1.051-0.085c-0.017,0.146,0.166,0.23,0.258,0.278
		c0.307,0.16,0.556,0.14,0.986,0.13c0.223-0.006,0.477,0.065,0.666-0.066c0.12-0.082,0.114-0.263,0.215-0.364
		c0.043-0.042,0.105-0.085,0.178-0.12c0.209,0.05,0.422,0.103,0.629,0.16c-0.033,0.145-0.268,0.11-0.27,0.303
		c0.148,0.09,0.496-0.05,0.631-0.2c0.051,0.014,0.104,0.03,0.154,0.045c0.305,0.093,0.604,0.193,0.9,0.3
		c0.425,0.152,0.84,0.32,1.25,0.5c-0.08,0.047-0.163,0.106-0.232,0.106c-0.177,0-0.253-0.238-0.449-0.15
		c-0.019,0.23,0.241,0.322,0.406,0.428c0.178,0.114,0.366,0.23,0.43,0.428c-0.176,0.37-0.453-0.02-0.729-0.02
		c-0.306-0.003-0.75,0.578-1.011,0.106c0.066-0.25,0.341-0.29,0.41-0.535c-0.06,0.01-0.117,0.03-0.174,0.052
		c-0.103,0.04-0.203,0.094-0.307,0.15c-0.137,0.074-0.28,0.147-0.443,0.183c-0.15,0.033-0.295,0.025-0.428,0.064
		c-0.257,0.075-0.436,0.265-0.708,0.365c-0.106,0.04-0.233,0.027-0.344,0.064c-0.261,0.087-0.57,0.242-0.837,0.386
		c-0.273,0.148-0.582,0.303-0.75,0.45c-0.092,0.08-0.329,0.36-0.322,0.45c0.012,0.127,0.252,0.17,0.258,0.3
		c-0.005,0.08-0.14,0.25-0.043,0.364c0.088,0.105,0.264,0.02,0.45,0.043c0.33,0.04,0.543,0.31,0.795,0.45
		c0.19,0.104,0.472,0.229,0.687,0.257c0.295,0.037,0.625-0.086,0.666,0.15c0.039,0.226-0.277,0.307-0.301,0.45
		c0.16,0.21-0.107,0.31-0.107,0.492c0,0.15,0.184,0.372,0.344,0.385c0.216,0.02,0.531-0.212,0.622-0.428
		c0.106-0.258,0.062-0.606,0.258-0.793c1,0.027,1.847-0.454,1.78-1.478c-0.006-0.102-0.063-0.233-0.043-0.344
		c0.033-0.166,0.318-0.305,0.281-0.514c0.106-0.033,0.17-0.12,0.226-0.218c0.083-0.146,0.147-0.313,0.3-0.368l0.03-0.014
		c0.088-0.02,0.18-0.002,0.276,0.026c0.172,0.05,0.356,0.138,0.562,0.124c0.104-0.007,0.239-0.1,0.343-0.085
		c0.21,0.03,0.336,0.287,0.494,0.407c0.141,0.106,0.286,0.072,0.322,0.214c-0.043,0.238-0.209,0.247-0.195,0.465V5.1
		c0.016,0.195,0.221,0.344,0.322,0.364c0.156,0.03,0.38-0.055,0.537-0.13c0.168-0.08,0.322-0.25,0.47-0.37
		c0.21,0.16,0.417,0.326,0.62,0.496c0.023,0.095,0.04,0.18,0.047,0.24c0.029,0.23-0.03,0.407-0.02,0.62
		c0.027,0.362,0.483,0.325,0.707,0.514c0.068,0.058,0.094,0.204,0.15,0.28c0.109,0.144,0.24,0.144,0.258,0.298
		c0.04,0.37-0.336,0.402-0.3,0.815c-0.08,0.16-0.274,0.15-0.258,0.364c0.024,0.34,0.51,0.08,0.644,0.343
		c0.072,0.142-0.011,0.248-0.063,0.45c0.166,0.198,0.165,0.514-0.128,0.514c-0.18,0-0.23-0.19-0.41-0.236
		c-0.1-0.024-0.236-0.02-0.364-0.04c-0.11-0.02-0.239-0.053-0.343-0.066c-0.266-0.03-0.553,0.046-0.71-0.107
		c0.257-0.338,0.596-0.672,0.924-0.964c0.099-0.087,0.308-0.146,0.258-0.32c-0.183-0.16-0.407,0.01-0.579,0.106
		c-0.181,0.1-0.396,0.247-0.601,0.278c-0.354,0.052-0.826-0.104-1.116,0.085c-0.04,0.162,0.33,0.1,0.277,0.343
		C30.307,9,30.173,9.012,30.064,8.913c-0.101-0.09-0.043-0.225-0.108-0.28c-0.11-0.09-0.522-0.115-0.708-0.084
		c-0.225,0.036-0.425,0.17-0.45,0.364c0.271,0.126,0.718-0.13,0.815,0.193c-0.148,0.266-0.497,0.413-0.45,0.77
		c0.019,0.138,0.183,0.323,0.3,0.343c0.12,0.021,0.186-0.097,0.301-0.086c0.121,0.012,0.094,0.15,0.236,0.13
		c0.207-0.09,0.32-0.378,0.559-0.365c0.283,0.344-0.258,0.512-0.559,0.62c-0.343,0.125-0.79,0.19-1.052,0.3
		c-0.138,0.06-0.656,0.56-0.73,0.172c-0.052-0.28,0.259-0.2,0.323-0.43c-0.332-0.063-0.643,0.144-0.943,0.26
		c-0.431,0.16-1.164,0.265-1.268,0.748c-0.02,0.097,0.042,0.278-0.02,0.343c-0.053,0.053-0.36,0.062-0.496,0.108
		c-0.207,0.07-0.387,0.222-0.515,0.257c-0.097,0.026-0.239,0.02-0.3,0.043c-0.17,0.066-0.234,0.296-0.43,0.45
		c-0.08,0.062-0.258,0.108-0.32,0.17c-0.111,0.11-0.127,0.388-0.323,0.43c-0.125,0.01-0.226-0.094-0.343-0.023
		c-0.014,0.274,0.098,0.645-0.02,0.922c-0.256,0.206-0.535,0.353-0.86,0.535c-0.181,0.1-0.34,0.127-0.558,0.236
		c-0.153,0.077-0.295,0.26-0.472,0.364c-0.409,0.24-0.903,0.526-0.899,1.135c0,0.132,0.067,0.275,0.084,0.43
		c0.011,0.09-0.01,0.178,0,0.277c0.027,0.224,0.188,0.51,0,0.664c-0.289-0.118-0.655-0.16-0.857-0.364
		c-0.055-0.21,0.112-0.386,0.086-0.578c-0.02-0.155-0.238-0.43-0.365-0.45c-0.13-0.02-0.25,0.118-0.386,0.107
		c-0.16-0.013-0.31-0.233-0.515-0.257c-0.302-0.036-0.524,0.068-0.86,0.022c-0.322,0.172-0.417,0.48-0.814,0.45
		c-0.14-0.01-0.267-0.118-0.43-0.15c-0.174-0.037-0.44-0.1-0.62-0.086c-0.367,0.024-0.632,0.286-0.945,0.45
		c-0.277,0.143-0.67,0.322-0.75,0.62c-0.047,0.16-0.01,0.387-0.066,0.536c-0.038,0.098-0.12,0.185-0.172,0.278
		c-0.24,0.44-0.44,1.02-0.257,1.65c0.027,0.093,0.266,0.62,0.365,0.728c0.11,0.117,0.436,0.296,0.622,0.3
		c0.157,0.003,0.34-0.08,0.493-0.106c0.177-0.033,0.398-0.035,0.558-0.086c0.465-0.147,0.374-0.773,0.838-0.986
		c0.203-0.09,0.437-0.11,0.794-0.128c0.113,0.095,0.166,0.262,0.15,0.407c-0.01,0.11-0.116,0.208-0.17,0.364
		c-0.05,0.138-0.06,0.297-0.108,0.407c-0.064,0.145-0.207,0.25-0.258,0.386c-0.033,0.091-0.015,0.2-0.043,0.28
		c-0.05,0.14-0.238,0.24-0.15,0.385c0.46,0.182,1.015-0.052,1.416,0.021c0.168,0.031,0.517,0.232,0.514,0.492
		c-0.002,0.194-0.15,0.322-0.172,0.535c-0.026,0.268-0.138,0.598-0.15,0.814c-0.02,0.354,0.523,0.967,0.9,0.962
		c0.41-0.005,0.647-0.405,1.14-0.192c0.162,0.07,0.334,0.334,0.515,0.32c0.149-0.01,0.373-0.27,0.472-0.45
		c0.12-0.218,0.131-0.401,0.344-0.513c0.23-0.12,0.414-0.063,0.709-0.17c0.131-0.051,0.246-0.135,0.364-0.217
		c0.104-0.069,0.214-0.256,0.343-0.127c0.17,0.17-0.209,0.268-0.064,0.451c0.298,0.156,0.449-0.293,0.666-0.301
		c0.068-0.002,0.306,0.135,0.428,0.215c0.167,0.109,0.225,0.264,0.408,0.299c0.117,0.023,0.307-0.045,0.472-0.021
		c0.22,0.032,0.351,0.22,0.515,0.214c0.203-0.006,0.301-0.226,0.473-0.258c0.38-0.07,0.52,0.043,0.688,0.28
		c0.187,0.029,0.192-0.217,0.364-0.131c-0.094,0.188,0.032,0.273,0.107,0.431c0.048,0.1,0.04,0.17,0.086,0.213
		c0.103,0.099,0.3,0.099,0.45,0.192c0.158,0.101,0.248,0.285,0.43,0.494c0.186,0.213,0.5,0.434,0.75,0.449
		c0.236,0.016,0.428-0.066,0.623-0.043c0.443,0.055,0.72,0.276,1.029,0.516c0.175,0.133,0.33,0.225,0.387,0.385
		c0.038,0.109,0.02,0.26,0.063,0.385c0.096,0.268,0.485,0.396,0.344,0.857c0.065,0.134,0.211,0.183,0.365,0.277
		c0.125,0.075,0.23,0.235,0.364,0.258c0.088,0.014,0.183-0.027,0.259-0.022c0.243,0.017,0.409,0.11,0.621,0.192
		c0.133,0.051,0.301,0.07,0.387,0.131c0.11,0.072,0.123,0.32,0.258,0.384c0.088,0.043,0.283-0.017,0.43,0
		c0.23,0.026,0.542,0.168,0.75,0.172c0.127,0.003,0.23-0.052,0.344-0.043c0.26,0.021,0.465,0.183,0.668,0.367
		c-2.584,4.168-6.744,7.26-11.641,8.442c-0.018-0.188-0.07-0.377-0.078-0.563c-0.018-0.407,0.045-0.695-0.02-1.07
		c-0.051-0.286-0.113-0.722-0.217-0.899c-0.115-0.2-0.565-0.539-0.793-0.666c-0.15-0.082-0.33-0.109-0.494-0.191
		c-0.35-0.17-1.027-0.532-1.182-0.878c-0.044-0.101-0.038-0.229-0.086-0.342c-0.093-0.22-0.29-0.41-0.43-0.622
		c-0.264-0.404-0.479-0.91-0.75-1.328c-0.137-0.212-0.257-0.452-0.407-0.62c-0.09-0.101-0.372-0.194-0.408-0.344
		c-0.048-0.198-0.195-0.47-0.172-0.62c0.03-0.206,0.43-0.37,0.43-0.559c0-0.157-0.213-0.25-0.258-0.385
		c-0.108-0.326,0.064-0.52,0.193-0.791c0.043-0.091,0.085-0.234,0.13-0.301c0.078-0.117,0.237-0.15,0.342-0.277
		c0.06-0.072,0.096-0.221,0.172-0.32c0.163-0.219,0.425-0.301,0.493-0.494c0.056-0.16,0.087-0.955,0.022-1.221
		c-0.041-0.154-0.182-0.282-0.237-0.43c-0.097-0.258-0.12-0.539-0.387-0.535c-0.164,0.006-0.28,0.187-0.386,0.301
		c-0.025,0.152-0.012,0.318-0.172,0.365c-0.244,0.071-0.337-0.258-0.622-0.344c-0.113-0.033-0.294-0.031-0.364-0.064
		c-0.208-0.092-0.275-0.396-0.494-0.514c-0.183-0.098-0.34-0.063-0.45-0.214c-0.047-0.104-0.01-0.29-0.022-0.43
		c-0.235-0.136-0.435-0.65-0.71-0.771c-0.18-0.08-0.458-0.072-0.685-0.149c-0.106-0.036-0.188-0.082-0.3-0.106
		c-0.137-0.029-0.28-0.033-0.386-0.086c-0.424-0.21-0.654-0.893-1.18-0.878c-0.224,0.006-0.44,0.215-0.644,0.214
		c-0.202,0-0.54-0.16-0.794-0.279c-0.263-0.121-0.555-0.188-0.772-0.299c-0.176-0.09-0.298-0.254-0.45-0.322
		c-0.12-0.051-0.29-0.06-0.387-0.106c-0.137-0.065-0.28-0.203-0.45-0.321c-0.163-0.113-0.338-0.283-0.344-0.429
		c-0.007-0.167,0.154-0.31,0.17-0.47c0.057-0.51-0.32-0.878-0.557-1.18c-0.175-0.223-0.38-0.413-0.557-0.62
		c0.008-0.138,0.008-0.163,0-0.3c-0.135-0.13-0.247-0.32-0.388-0.514c-0.127-0.175-0.375-0.36-0.407-0.557
		c-0.04-0.24,0.09-0.452,0-0.686c-0.153-0.387-0.692-0.212-0.623,0.3c0.02,0.142,0.22,0.33,0.28,0.472
		c0.06,0.142,0.05,0.32,0.106,0.492c0.056,0.165,0.222,0.308,0.28,0.493c0.09,0.294,0.088,0.61,0.17,0.793
		C9.215,18.846,9.487,19,9.334,19.197c-0.203,0.042-0.28-0.16-0.407-0.28c-0.07-0.064-0.326-0.19-0.365-0.34
		c-0.032-0.127,0.08-0.297,0.043-0.45c-0.074-0.304-0.685-0.31-0.687-0.622c-0.002-0.196,0.255-0.22,0.258-0.408
		c0-0.206-0.283-0.38-0.344-0.556c-0.056-0.16-0.065-0.417-0.085-0.643c-0.02-0.212,0.005-0.458-0.044-0.62
		c-0.043-0.148-0.264-0.35-0.406-0.43c-0.188-0.104-0.338-0.06-0.43-0.214c-0.08-0.132-0.132-0.412-0.15-0.556
		c-0.03-0.257-0.007-0.54-0.02-0.814c-0.015-0.275-0.044-0.54,0-0.835c0.105-0.207,0.298-0.31,0.407-0.514
		c0.076-0.142,0.087-0.32,0.172-0.47c0.157-0.28,0.5-0.54,0.73-0.815c0.248-0.297,0.477-0.58,0.622-0.92
		C8.68,9.59,8.82,9.32,8.8,9.174C8.77,8.967,8.382,8.797,8.413,8.552c0.02-0.152,0.235-0.15,0.3-0.3
		c0.033-0.077,0.063-0.293,0.065-0.386C8.781,7.66,8.671,7.444,8.713,7.224c0.035-0.19,0.316-0.265,0.172-0.472
		c-0.143-0.204-0.4,0.11-0.558-0.02c-0.146-0.123,0.03-0.27,0.042-0.494c0.006-0.09-0.052-0.19-0.042-0.257
		c0.013-0.096,0.2-0.257,0.15-0.32c-0.078-0.1-0.163-0.297-0.284-0.455c2.393-1.915,5.262-3.26,8.398-3.83L16.588,1.372z"/>
</g>
</svg>
