<?xml version="1.0" encoding="utf-8"?>
<!-- Generator: Adobe Illustrator 16.0.0, SVG Export Plug-In . SVG Version: 6.00 Build 0)  -->
<!DOCTYPE svg PUBLIC "-//W3C//DTD SVG 1.1//EN" "http://www.w3.org/Graphics/SVG/1.1/DTD/svg11.dtd">
<svg version="1.1" id="Layer_1" xmlns="http://www.w3.org/2000/svg" xmlns:xlink="http://www.w3.org/1999/xlink" x="0px" y="0px"
	 width="40px" height="40px" viewBox="0 0 40 40" enable-background="new 0 0 40 40" xml:space="preserve">
<title>ic-community</title>
<g>
	<path fill="none" d="M0,0h40v40H0V0z"/>
	<circle fill="#CCCCCC" cx="20" cy="20" r="20"/>
	<g>
		<path fill="#FFFFFF" d="M20,17.5c-2.125,0-3.75-1.625-3.75-3.75S17.875,10,20,10s3.75,1.625,3.75,3.75S22.125,17.5,20,17.5z
			 M22.5,30h-5v-5L15,22.5v-3.75h10v3.75L22.5,25 M12.5,16.25c-1.375,0-2.5-1.125-2.5-2.5s1.125-2.5,2.5-2.5s2.5,1.125,2.5,2.5
			S13.875,16.25,12.5,16.25z M13.75,23v-5.5H10v3.75l1.25,1.25v5H15v-3.25 M27.5,16.25c1.375,0,2.5-1.125,2.5-2.5
			s-1.125-2.5-2.5-2.5s-2.5,1.125-2.5,2.5S26.125,16.25,27.5,16.25z M26.25,23v-5.5H30v3.75l-1.25,1.25v5H25v-3.25"/>
	</g>
</g>
</svg>
