<?xml version="1.0" encoding="utf-8"?>
<!-- Generator: Adobe Illustrator 16.0.0, SVG Export Plug-In . SVG Version: 6.00 Build 0)  -->
<!DOCTYPE svg PUBLIC "-//W3C//DTD SVG 1.1//EN" "http://www.w3.org/Graphics/SVG/1.1/DTD/svg11.dtd">
<svg version="1.1" id="Layer_1" xmlns="http://www.w3.org/2000/svg" xmlns:xlink="http://www.w3.org/1999/xlink" x="0px" y="0px"
	 width="40px" height="40px" viewBox="0 0 40 40" enable-background="new 0 0 40 40" xml:space="preserve">
<title>ic-education</title>
<g>
	<path fill="none" d="M0,0h40v40H0V0z"/>
	<g>
		<circle fill="#CCCCCC" cx="20" cy="20" r="20"/>
		<g>
			<path fill="#FFFFFF" d="M19.588,26.164V12.51c-2.572-0.554-5.143-0.823-7.715,0.397v13.649
				C14.445,25.337,17.016,25.609,19.588,26.164z M28.127,26.561V12.907c-2.572-1.22-5.143-0.95-7.715-0.412v13.649
				C22.984,25.609,25.555,25.335,28.127,26.561z"/>
			<path fill="#FFFFFF" d="M28.936,14.527v13.321c-1.924-1.084-3.531-1.341-4.826-1.353c-1.215-0.009-3.313,0.354-4.109,0.569
				c-0.918-0.227-3.008-0.594-4.11-0.569c-1.347,0.028-2.555,0.159-4.825,1.351V14.528H10v13.84h20v-13.84L28.936,14.527
				L28.936,14.527z"/>
		</g>
	</g>
</g>
</svg>
