<?xml version="1.0" encoding="utf-8"?>
<!-- Generator: Adobe Illustrator 16.0.0, SVG Export Plug-In . SVG Version: 6.00 Build 0)  -->
<!DOCTYPE svg PUBLIC "-//W3C//DTD SVG 1.1//EN" "http://www.w3.org/Graphics/SVG/1.1/DTD/svg11.dtd">
<svg version="1.1" id="Layer_1" xmlns="http://www.w3.org/2000/svg" xmlns:xlink="http://www.w3.org/1999/xlink" x="0px" y="0px"
	 width="40px" height="40px" viewBox="0 0 40 40" enable-background="new 0 0 40 40" xml:space="preserve">
<title>ic-elderly</title>
<g>
	<path fill="none" d="M0,0h40v40H0V0z"/>
	<circle fill="#CCCCCC" cx="20" cy="20" r="20"/>
	<path fill="#FFFFFF" d="M25.682,20C26.962,20,28,20.926,28,22.07v10.32c0,0.813-1.363,0.813-1.363,0V22.07
		c0-0.471-0.429-0.853-0.955-0.853C24.771,21.218,24.771,20,25.682,20z M20,8c0,1.104-0.896,2-2,2c-1.105,0-2-0.896-2-2s0.895-2,2-2
		C19.104,6,20,6.896,20,8z M19.74,19.17l0.818,7.073c0,0,0.063,0.476,0.063,0.97v4.641c0,1.529-2.363,1.529-2.362,0l0.002-4.943
		l-0.42-3.628c-0.015-0.128-0.174-0.126-0.183,0l-0.383,3.405c-0.047,0.388-0.07,0.52-0.177,0.943
		c-0.054,0.227-1.128,4.482-1.128,4.482c-0.375,1.486-2.67,0.939-2.294-0.547l1.22-4.842l0.78-7.548l-0.077-4.038l-1.07,1.394
		l-0.806,4.096c-0.25,1.243-1.937,0.826-1.7-0.28c0.386-1.816,0.537-2.853,0.66-3.555c0.17-0.962,0.29-1.297,0.895-2.15
		c0.635-0.863,1.498-2.03,2.27-3.07c0.236-0.322,0.596-0.573,1.014-0.573h1.668c0.492,0,0.937,0.326,1.112,0.76l2.5,5.51l2.42,1.938
		c1.098,0.818-0.117,2.146-1.055,1.423c-1.59-1.223-2.17-1.542-2.563-2.02c-0.338-0.414-0.554-0.92-1.225-2.138
		c0,0,0.013,2.655,0.017,2.698L19.74,19.17z"/>
</g>
</svg>
