<?xml version="1.0" encoding="utf-8"?>
<!-- Generator: Adobe Illustrator 16.0.0, SVG Export Plug-In . SVG Version: 6.00 Build 0)  -->
<!DOCTYPE svg PUBLIC "-//W3C//DTD SVG 1.1//EN" "http://www.w3.org/Graphics/SVG/1.1/DTD/svg11.dtd">
<svg version="1.1" id="Layer_1" xmlns="http://www.w3.org/2000/svg" xmlns:xlink="http://www.w3.org/1999/xlink" x="0px" y="0px"
	 width="40px" height="40px" viewBox="0 0 40 40" enable-background="new 0 0 40 40" xml:space="preserve">
<title>ic-health</title>
<g>
	<path fill="none" d="M0,0h40v40H0V0z"/>
	<circle fill="#CCCCCC" cx="20" cy="20" r="20"/>
	<path fill="#FFFFFF" d="M28.75,15H25v-3.75C25,10.5,24.5,10,23.75,10h-7.5C15.5,10,15,10.5,15,11.25V15h-3.75
		C10.5,15,10,15.5,10,16.25v12.5C10,29.5,10.5,30,11.25,30h17.5C29.5,30,30,29.5,30,28.75v-12.5C30,15.5,29.5,15,28.75,15z
		 M17.5,12.5h5V15h-5V12.5z M23.75,23.75h-2.5v2.5h-2.5v-2.5h-2.5v-2.5h2.5v-2.5h2.5v2.5h2.5V23.75z"/>
</g>
</svg>
