<?xml version="1.0" encoding="utf-8"?>
<!-- Generator: Adobe Illustrator 16.0.0, SVG Export Plug-In . SVG Version: 6.00 Build 0)  -->
<!DOCTYPE svg PUBLIC "-//W3C//DTD SVG 1.1//EN" "http://www.w3.org/Graphics/SVG/1.1/DTD/svg11.dtd">
<svg version="1.1" id="Layer_1" xmlns="http://www.w3.org/2000/svg" xmlns:xlink="http://www.w3.org/1999/xlink" x="0px" y="0px"
	 width="40px" height="40px" viewBox="0 0 40 40" enable-background="new 0 0 40 40" xml:space="preserve">
<title>ic-social-service-hp</title>
<g>
	<path fill="none" d="M0,0h40v40H0V0z"/>
	<path class="fill-color" fill="#666666" d="M30.795,4.853c-1.005,0-1.82,0.814-1.82,1.82v7.885c0,0.334-0.272,0.606-0.606,0.606
		s-0.606-0.272-0.606-0.606V3.033c0-1.005-0.816-1.82-1.82-1.82s-1.819,0.815-1.819,1.82v10.312c0,0.334-0.272,0.606-0.606,0.606
		c-0.336,0-0.607-0.27-0.607-0.605V1.82c0-1.005-0.815-1.82-1.82-1.82c-1.006,0-1.82,0.815-1.82,1.82v11.525
		c0,0.334-0.273,0.606-0.607,0.606s-0.39-0.27-0.39-0.605v-9.1c0-1.004-0.814-1.82-1.82-1.82c-1.005,0-1.82,0.816-1.82,1.82
		c0,0,0.018,6.683,0.018,7.367c0,0.684,0.22,0.96,0.33,1.105c1.37,1.802,2.66,3.502,2.843,3.737c1.036,1.34,1.133,0.748,3.71,1.363
		h0.004v0.002c0.166,0.036,0.327,0.083,0.483,0.138c1.272,0.436,4.174,1.51,4.174,1.51c0.549,0.195,0.844,0.76,0.66,1.267
		c-0.189,0.5-0.779,0.75-1.334,0.557c0,0-1.168-0.335-1.285-0.37c-0.117-0.036-0.436-0.097-0.155,0.265l3.75,4.85
		c0.271,0.35,0.205,0.85-0.144,1.117c-0.348,0.271-0.848,0.205-1.117-0.143l-2.436-3.15c-0.09-0.116-0.18-0.195-0.296-0.106
		c-0.116,0.09-0.137,0.256-0.048,0.373l3.085,3.99c0.271,0.348,0.206,0.848-0.142,1.116c-0.349,0.271-0.849,0.205-1.117-0.143
		l-3.084-3.99c-0.09-0.115-0.258-0.138-0.373-0.048c-0.115,0.091-0.137,0.257-0.049,0.372l2.761,3.57
		c0.271,0.348,0.206,0.85-0.142,1.117c-0.349,0.27-0.849,0.205-1.117-0.143l-3.086-3.99c-0.09-0.115-0.256-0.137-0.373-0.047
		c-0.116,0.09-0.137,0.258-0.048,0.373l2.11,2.73c0.27,0.348,0.206,0.848-0.142,1.117c-0.349,0.27-0.849,0.205-1.117-0.144
		l-4.383-5.67l-0.03-0.04c-1.73-2.263-0.73-3.326-1.88-4.935l-0.15-0.2c-0.345-0.447-0.9-1.19-1.543-2.058l-0.79-1.055
		c-0.728-1.123-2.15-1.5-3.19-0.856c-1.038,0.657-1.296,2.09-0.577,3.21c0,0,3.746,5.998,5.435,8.563
		c0.21,0.318,0.435,0.628,0.68,0.927c0.003,0.004,0.005,0.008,0.008,0.01c2.026,2.602,3.364,4.904,3.364,7.175
		c0,0.772-0.012,2.498-0.033,3.55c-0.012,0.628-0.153,1.372,0.964,1.372h9.325c0.947,0,0.926-0.71,0.933-1.024
		c0.097-3.854,0.024-0.974,0.024-3.897c0-4.854,3.468-5.233,3.507-11.915v-0.113V6.672c0-1.005-0.813-1.82-1.82-1.82L30.795,4.853z"
		/>
</g>
</svg>
