<?xml version="1.0" encoding="utf-8"?>
<!-- Generator: Adobe Illustrator 23.0.1, SVG Export Plug-In . SVG Version: 6.00 Build 0)  -->
<svg width="40" height="40" version="1.1" id="Layer_1" xmlns="http://www.w3.org/2000/svg" xmlns:xlink="http://www.w3.org/1999/xlink" x="0px" y="0px"
	 viewBox="0 0 40 40" style="enable-background:new 0 0 40 40;" xml:space="preserve">
<style type="text/css">
	.st0{fill:none;}
	.st1{fill:#666666;}
</style>
<title>ic-sports-hp</title>
<g>
	<path class="st0" d="M0,0h40v40H0V0z"/>
	<g transform="translate(0 6)">
		<path class="st1 fill-color " d="M5.1,5.5l9.3,1.2c0.3,0.8,1.9,4.9,2.3,5.6h0c-2.7,1.3-5.4,2.6-8,4c0.9-0.2,1.9-0.3,2.8-0.3
			c1.2,0,2.5,0.1,3.6,0.4c2.3,0.6,4.5,1.5,6.5,2.5c1.8,0.8,3.5,1.6,5.3,2c0.2,0.1,0.5,0.1,0.7,0.2c-2-4.2-7.5-15.4-8.6-17.9
			c-0.5-1.2-1.2-1.6-2.2-1.7L5.8,0C4.3-0.2,2.9,0.9,2.7,2.4C2.5,3.9,3.6,5.3,5.1,5.5L5.1,5.5z"/>
		<path class="st1 fill-color" d="M0.7,25c0.3,0.2,0.6,0.3,1,0.3c0.1,0,0.1,0,0.2,0c0.5-0.1,0.9-0.3,1.2-0.7c1.1-1.5,2.8-2.7,4.8-3.4
			c1.1-0.4,2.3-0.6,3.5-0.6c4.2,0,7.9,2.5,11.7,4c2,0.8,4.2,1.4,6.5,1.4c1,0,2-0.1,3-0.3c2.5-0.5,4.6-1.7,6.1-3.4
			c0.4-0.4,0.7-0.8,1-1.3c0.5-0.8,0.3-1.8-0.5-2.4c-0.3-0.2-0.6-0.3-0.9-0.3c-0.5,0-1.1,0.3-1.4,0.8c-0.1,0.2-0.3,0.4-0.4,0.6
			c-1.1,1.3-2.7,2.2-4.6,2.6c-1.8,0.4-3.7,0.3-5.4-0.2c-1.8-0.5-3.6-1.3-5.5-2.1c-2-0.9-4.1-1.8-6.3-2.4c-1.1-0.3-2.2-0.4-3.3-0.4
			c-1.5,0-3.1,0.3-4.6,0.7c-1.3,0.4-2.5,1-3.6,1.8c-1.1,0.8-2.1,1.8-2.9,2.8c-0.1,0.1-0.1,0.1-0.1,0.2C-0.2,23.5,0,24.5,0.7,25z"/>
		<circle class="st1 fill-color" cx="31.5" cy="11.1" r="6"/>
	</g>
</g>
</svg>
