<svg width="100" height="100" viewBox="0 0 100 100" xmlns="http://www.w3.org/2000/svg"><title>ic-fundraise-db</title><g fill="none" fill-rule="evenodd"><g fill-rule="nonzero" fill="#F16577"><path d="M15.904 56.546c-.76-1.65-1.18-2.646-1.042-2.646.843 0 1.527-.683 1.527-1.528V40.278c0-3.37-2.743-6.11-6.112-6.11-3.37 0-6.11 2.74-6.11 6.11v22.917c0 5.704 3.45 8.682 3.503 8.72l12.223 12.22c.06.062 6.264 1.828 7.297.468 1.792.13 10.588.736 10.588-.024v-7.662c0-5.64-3.45-8.69-3.516-8.745L23.53 57.448c-1.155-1.154-2.64-1.825-4.18-1.888-1.246-.05-2.434.295-3.446.986z" opacity=".2"/><path d="M39.305 84.167H14.86c-.844 0-1.527.684-1.527 1.527v6.11c0 .845.683 1.53 1.528 1.53h24.445c.844 0 1.528-.685 1.528-1.53v-6.11c0-.843-.684-1.527-1.528-1.527zM84.39 56.763c-1.076-.835-2.39-1.256-3.74-1.203-1.54.063-3.026.734-4.18 1.888l-10.654 10.65c-.145.13-3.594 3.18-3.594 8.82v7.66c0 .657 11.08-.135 16.058-.19.23.13.49.195.747.195.248 0 .497-.06.72-.18.574.025.904.08.904.176 0 .14.186-.43.49-1.478l11.095-11.1c.146-.125 3.598-3.103 3.598-8.807V40.278c0-3.37-2.74-6.11-6.112-6.11-3.367 0-6.11 2.74-6.11 6.11v12.094c0 .845.685 1.527 1.528 1.527 0 0-.287 1.093-.747 2.863z" opacity=".2"/><path d="M85.14 84.167H60.693c-.844 0-1.527.684-1.527 1.527v6.112c0 .843.683 1.527 1.527 1.527H85.14c.842 0 1.527-.684 1.527-1.527v-6.112c0-.843-.685-1.527-1.528-1.527zM77.5 23.472c0-9.267-7.538-16.805-16.804-16.805-6.51 0-12.492 3.812-15.242 9.713-.356.766-.026 1.675.74 2.03.763.358 1.672.025 2.03-.74 2.25-4.828-1.74-6.816-1.4-7.59.338-.772-.015-1.672-.788-2.01-2.127-.93-4.392-1.403-6.73-1.403-9.268 0-16.806 7.538-16.806 16.805 0 9.865 9.38 25.468 26.77 34.953.227.123.48.186.73.186.253 0 .503-.062.732-.185C68.12 48.94 77.5 33.34 77.5 23.472z" opacity=".2"/></g><g fill-rule="nonzero" fill="#F16577"><path d="M20.973 84.583c.39 0 .78-.15 1.08-.447.596-.598.596-1.565 0-2.16L9.745 69.673c-.104-.09-2.522-2.248-2.522-6.48V40.28c0-1.685 1.37-3.056 3.055-3.056 1.686 0 3.056 1.37 3.056 3.056v18.76c0 .845.683 1.528 1.528 1.528.843 0 1.527-.683 1.527-1.528v-18.76c0-3.37-2.743-6.11-6.112-6.11-3.37 0-6.11 2.74-6.11 6.11v22.917c0 5.704 3.45 8.682 3.503 8.72l12.223 12.22c.298.3.69.448 1.08.448z"/><path d="M39.305 84.167H14.86c-.844 0-1.527.684-1.527 1.527v6.11c0 .845.683 1.53 1.528 1.53.844 0 1.53-.685 1.53-1.53v-4.582h21.388v4.583c0 .844.683 1.528 1.527 1.528.844 0 1.528-.684 1.528-1.528v-6.11c0-.844-.684-1.528-1.528-1.528z"/><path d="M13.338 61.565c.063 1.54.735 3.026 1.89 4.178l7.666 7.66c.598.6 1.57.6 2.168 0 .598-.598.598-1.568 0-2.165l-7.668-7.663c-.61-.606-.96-1.365-.992-2.134-.03-.756.248-1.452.808-2.01.558-.56 1.26-.837 2.013-.808.77.032 1.53.384 2.138.993l10.804 10.793c.105.092 2.547 2.32 2.547 6.51v7.66c0 .847.687 1.533 1.535 1.533.846 0 1.533-.685 1.533-1.53v-7.662c0-5.64-3.45-8.69-3.516-8.745L23.53 57.448c-1.155-1.154-2.64-1.825-4.18-1.888-1.62-.064-3.145.538-4.308 1.703-1.166 1.163-1.77 2.692-1.704 4.302zM65.816 68.098c-.145.13-3.594 3.18-3.594 8.82v7.66c0 .847.686 1.533 1.534 1.533.846 0 1.533-.685 1.533-1.53v-7.662c0-4.19 2.44-6.42 2.616-6.578l10.732-10.726c.61-.608 1.368-.96 2.14-.993.77-.025 1.453.25 2.01.81.53.53.812 1.186.812 1.902 0 .807-.354 1.604-.997 2.244l-7.666 7.662c-.598.597-.598 1.567 0 2.166.6.6 1.57.6 2.168 0l7.666-7.66c1.222-1.217 1.895-2.785 1.897-4.412 0-1.523-.606-2.968-1.71-4.07-1.164-1.164-2.71-1.765-4.306-1.702-1.54.063-3.026.734-4.18 1.888l-10.654 10.65zM77.5 23.472c0-9.267-7.538-16.805-16.804-16.805-6.51 0-12.492 3.812-15.242 9.713-.356.766-.026 1.675.74 2.03.763.358 1.672.025 2.03-.74 2.25-4.828 7.145-7.948 12.472-7.948 7.58 0 13.748 6.168 13.748 13.75 0 8.97-9.125 23.222-24.443 31.863-15.32-8.64-24.444-22.893-24.444-31.863 0-7.582 6.167-13.75 13.75-13.75 1.914 0 7.1 2.052 8.838 2.813.773.337 1.675-.014 2.012-.787.34-.773-.014-1.673-.787-2.012-2.127-.93-7.726-3.07-10.064-3.07-9.268 0-16.806 7.54-16.806 16.806 0 9.865 9.38 25.468 26.77 34.953.227.123.48.186.73.186.253 0 .503-.062.732-.185C68.12 48.94 77.5 33.34 77.5 23.472z"/><path d="M89.72 34.167c-3.367 0-6.11 2.74-6.11 6.11v18.76c0 .846.685 1.53 1.528 1.53s1.528-.684 1.528-1.53v-18.76c0-1.684 1.37-3.055 3.055-3.055 1.687 0 3.057 1.37 3.057 3.056v22.916c0 4.232-2.418 6.39-2.608 6.56l-12.223 12.22c-.596.597-.596 1.564 0 2.162.298.298.69.447 1.08.447.39 0 .782-.15 1.08-.447L92.235 72c.146-.123 3.598-3.1 3.598-8.805V40.278c0-3.37-2.74-6.11-6.112-6.11z"/><path d="M85.14 84.167H60.693c-.844 0-1.527.684-1.527 1.527v6.112c0 .843.683 1.527 1.527 1.527.844 0 1.528-.684 1.528-1.527v-4.584h21.39v4.584c0 .843.684 1.527 1.527 1.527.842 0 1.527-.684 1.527-1.527v-6.112c0-.843-.685-1.527-1.528-1.527zM63.212 16.428c2.09.742 3.78 2.433 4.524 4.527.217.61.79.99 1.4.99.166 0 .334-.03.5-.087.773-.275 1.177-1.125.903-1.898-1.055-2.972-3.363-5.28-6.333-6.333-.773-.272-1.624.13-1.9.903-.273.774.13 1.623.905 1.898z"/></g><path d="M0 0h100v100H0z"/></g></svg>