<svg width="100" height="100" viewBox="0 0 100 100" xmlns="http://www.w3.org/2000/svg"><title>ic-home</title><g fill="none" fill-rule="evenodd"><path d="M94.06 49.006c-.878 1.078-2.135 1.633-3.4 1.633-.4 0-.8-.1-1.19-.215v39.338c0 2.544-1.992 4.606-4.448 4.606h-68.69c-2.458 0-4.448-2.063-4.448-4.607V50.46c-1.622.465-3.427-.037-4.583-1.454-1.584-1.942-1.35-4.848.526-6.49L47.812 7.512c1.655-1.45 4.084-1.45 5.74 0l39.983 35.004c1.876 1.642 2.11 4.548.525 6.49zM72.125 55c0-7.583-6.168-13.75-13.75-13.75-5.326 0-10.22 3.12-12.47 7.947-.29.627-.02 1.37.606 1.662.626.29 1.37.02 1.662-.606 1.84-3.95-1.423-5.578-1.146-6.21.277-.633-.012-1.37-.644-1.646-1.74-.762-3.594-1.148-5.507-1.148-7.582 0-13.75 6.167-13.75 13.75 0 8.07 7.675 20.838 21.902 28.598.186.1.392.152.6.152.205 0 .41-.05.597-.152 14.226-7.76 21.9-20.526 21.9-28.598z" opacity=".2" fill-rule="nonzero" fill="#7955B4"/><g fill-rule="nonzero"><path d="M4.658 49.96c-2.095-2.46-1.784-6.143.695-8.223L45.615 7.94c2.19-1.838 5.398-1.838 7.587 0l40.26 33.797c2.48 2.08 2.79 5.762.695 8.224-1.087 1.28-2.648 2.012-4.294 2.066v36.39c0 3.223-2.63 5.835-5.876 5.835-2.164 0-4.122-.038-5.876-.118l-28.7-.094-28.715.103c-1.754.075-3.712.11-5.876.11-3.247 0-5.877-2.61-5.877-5.834V52.018c-1.623-.053-3.19-.77-4.285-2.057zm87.362-1.79c1.098-1.292.935-3.22-.364-4.31L51.396 10.06c-1.146-.963-2.828-.963-3.975 0L7.16 43.86c-1.3 1.09-1.46 3.018-.364 4.308.78.916 2.018 1.28 3.174.962l1.772-.487v39.773c0 1.69 1.378 3.058 3.08 3.058 1.133 0 2.16.126 3.078.377l31.51-.45 31.5.443c.92-.246 1.945-.37 3.08-.37 1.7 0 3.078-1.368 3.078-3.057V48.602l1.777.495c.398.11.63.155.823.155.903 0 1.76-.387 2.354-1.083z" fill="#7955B4"/><g fill="#F16577"><path d="M72.125 55c0-7.583-6.168-13.75-13.75-13.75-5.326 0-10.22 3.12-12.47 7.947-.29.627-.02 1.37.606 1.662.626.29 1.37.02 1.662-.606 1.84-3.95-1.423-5.578-1.146-6.21.277-.633-.012-1.37-.644-1.646-1.74-.762-3.594-1.148-5.507-1.148-7.582 0-13.75 6.167-13.75 13.75 0 8.07 7.675 20.838 21.902 28.598.186.1.392.152.6.152.205 0 .41-.05.597-.152 14.226-7.76 21.9-20.526 21.9-28.598z" opacity=".2"/><path d="M72.125 55c0-7.583-6.168-13.75-13.75-13.75-5.326 0-10.22 3.12-12.47 7.947-.29.627-.02 1.37.606 1.662.626.29 1.37.02 1.662-.606 1.84-3.95 5.846-6.504 10.204-6.504 6.203 0 11.25 5.046 11.25 11.25 0 7.34-7.468 19-20 26.07-12.535-7.07-20-18.73-20-26.07 0-6.204 5.045-11.25 11.25-11.25 1.566 0 5.808 1.68 7.23 2.3.633.277 1.37-.01 1.647-.643.277-.632-.01-1.368-.644-1.646-1.74-.76-6.322-2.51-8.235-2.51-7.582 0-13.75 6.167-13.75 13.75 0 8.07 7.675 20.838 21.902 28.598.186.1.392.152.6.152.205 0 .41-.05.597-.152 14.226-7.76 21.9-20.526 21.9-28.598z"/></g></g><path d="M0 0h100v100H0z"/></g></svg>