<svg width="100" height="100" viewBox="0 0 100 100" xmlns="http://www.w3.org/2000/svg"><title>ic-hours</title><g fill="none" fill-rule="evenodd"><path d="M49.667 8c11.13 0 21.592 4.335 29.46 12.206C87 28.074 91.334 38.538 91.334 49.666c0 11.13-4.334 21.593-12.204 29.46-7.87 7.87-18.333 12.207-29.463 12.207-11.13 0-21.593-4.334-29.46-12.205C12.334 71.258 8 60.796 8 49.668c0-11.13 4.335-21.594 12.206-29.46C28.074 12.335 38.538 8 49.666 8zM63 45.765C63 41.483 59.573 38 55.362 38c-2.96 0-5.678 1.76-6.928 4.488-.162.354-.012.774.336.938.347.165.76.01.923-.342 1.023-2.23-.79-3.15-.637-3.506.154-.358-.006-.773-.358-.93-.966-.43-1.996-.648-3.06-.648C41.43 38 38 41.483 38 45.765c0 4.558 4.264 11.767 12.168 16.15.103.056.218.085.332.085.115 0 .23-.03.333-.086C58.736 57.532 63 50.324 63 45.764z" fill-rule="nonzero" fill="#7955B4" opacity=".2"/><g transform="translate(8 8)"><circle stroke="#7955B4" stroke-width="2" cx="42" cy="42" r="41"/><path fill="#7955B4" fill-rule="nonzero" d="M5 41h5v2H5zM73 41h5v2h-5M41 73h2v5h-2M41 5h2v5h-2z"/></g><g fill-rule="nonzero" fill="#F16577"><path d="M63 45.765C63 41.483 59.573 38 55.362 38c-2.96 0-5.678 1.76-6.928 4.488-.162.354-.012.774.336.938.347.165.76.01.923-.342 1.023-2.23-.79-3.15-.637-3.506.154-.358-.006-.773-.358-.93-.966-.43-1.996-.648-3.06-.648C41.43 38 38 41.483 38 45.765c0 4.558 4.264 11.767 12.168 16.15.103.056.218.085.332.085.115 0 .23-.03.333-.086C58.736 57.532 63 50.324 63 45.764z" opacity=".2"/><path d="M63 45.765C63 41.483 59.573 38 55.362 38c-2.96 0-5.678 1.76-6.928 4.488-.162.354-.012.774.336.938.347.165.76.01.923-.342 1.023-2.23 3.248-3.672 5.67-3.672 3.445 0 6.248 2.85 6.248 6.353 0 4.144-4.147 10.73-11.11 14.722-6.963-3.993-11.11-10.578-11.11-14.722 0-3.504 2.802-6.353 6.25-6.353.87 0 3.226.948 4.016 1.3.352.155.762-.007.915-.364.155-.357-.005-.773-.357-.93-.966-.43-3.51-1.418-4.574-1.418-4.213 0-7.64 3.483-7.64 7.765 0 4.558 4.264 11.767 12.168 16.15.103.056.218.085.332.085.115 0 .23-.03.333-.086C58.736 57.532 63 50.324 63 45.764z"/></g><path d="M0 0h100v100H0z"/></g></svg>