<svg width="64" height="64" viewBox="0 0 64 64" xmlns="http://www.w3.org/2000/svg"><title>ic-organisation</title><g fill="none" fill-rule="evenodd"><g opacity=".2" transform="translate(2 2)" fill-rule="nonzero" fill="#173D68"><path d="M11.192 43.096C4.996 43.096 0 48.092 0 54.288c0 .808.098 1.567.233 2.34 3.098 1.615 6.857 2.57 10.947 2.57 4.09 0 7.86-.955 10.947-2.57.146-.76.232-1.52.232-2.34.073-6.147-4.984-11.192-11.168-11.192z"/><circle cx="11.192" cy="34.61" r="5.902"/><path d="M48.808 43.096c-6.196 0-11.192 4.996-11.192 11.192 0 .808.098 1.567.233 2.34 3.097 1.615 6.856 2.57 10.946 2.57s7.86-.955 10.947-2.57c.147-.76.233-1.52.233-2.34.024-6.147-4.972-11.192-11.168-11.192z"/><circle cx="48.808" cy="34.61" r="5.902"/><path d="M30 30.57c4.09 0 7.86-.956 10.947-2.572.147-.76.233-1.518.233-2.34 0-6.195-4.996-11.19-11.192-11.19s-11.192 4.995-11.192 11.19c0 .81.098 1.57.233 2.34 3.11 1.616 6.88 2.57 10.97 2.57z"/><circle cx="30" cy="5.945" r="5.902"/><path d="M31.616 40.096v-6.82c0-.674-.55-1.25-1.236-1.237-.65.023-1.15.538-1.15 1.187v6.857l-5.475 5.424c-.465.465-.477 1.212-.024 1.69.478.49 1.286.478 1.764-.012l4.873-4.874 4.947 4.898c.478.466 1.237.466 1.715 0 .476-.477.476-1.25 0-1.714l-5.414-5.4z"/></g><g fill-rule="nonzero" fill="#173D68"><path d="M13.192 44.596c6.47 0 11.744 5.28 11.667 11.692 0 .816-.082 1.602-.243 2.434l-.045.236-.213.11c-3.25 1.703-7.118 2.63-11.18 2.63-4.058 0-7.913-.925-11.18-2.628l-.217-.114-.043-.243c-.16-.923-.24-1.664-.24-2.425 0-6.472 5.22-11.692 11.692-11.692zM23.86 56.282c.07-5.86-4.754-10.686-10.668-10.686-5.92 0-10.692 4.772-10.692 10.692 0 .63.06 1.25.184 2.008 3.074 1.557 6.69 2.402 10.496 2.402 3.812 0 7.44-.848 10.5-2.403.12-.684.18-1.335.18-2.013zM13.192 43.012c-3.536 0-6.402-2.866-6.402-6.402s2.866-6.402 6.402-6.402 6.402 2.866 6.402 6.402-2.866 6.402-6.402 6.402zm0-1c2.983 0 5.402-2.418 5.402-5.402 0-2.983-2.42-5.402-5.402-5.402-2.984 0-5.402 2.42-5.402 5.402 0 2.984 2.418 5.402 5.402 5.402zM50.808 44.596c6.46 0 11.693 5.257 11.668 11.692 0 .816-.08 1.602-.242 2.434l-.046.236-.213.11c-3.25 1.703-7.117 2.63-11.18 2.63-4.057 0-7.912-.925-11.177-2.628l-.22-.114-.042-.243c-.16-.923-.24-1.664-.24-2.425 0-6.472 5.22-11.692 11.692-11.692zm10.668 11.69c.023-5.883-4.762-10.69-10.668-10.69-5.92 0-10.692 4.772-10.692 10.692 0 .63.06 1.25.184 2.008 3.074 1.557 6.69 2.402 10.496 2.402 3.813 0 7.44-.848 10.5-2.403.12-.684.18-1.335.18-2.01zM50.808 43.012c-3.536 0-6.402-2.866-6.402-6.402s2.866-6.402 6.402-6.402 6.402 2.866 6.402 6.402-2.866 6.402-6.402 6.402zm0-1c2.984 0 5.402-2.418 5.402-5.402 0-2.983-2.418-5.402-5.402-5.402-2.983 0-5.402 2.42-5.402 5.402 0 2.984 2.42 5.402 5.402 5.402zM32 33.07c-4.06 0-7.925-.926-11.202-2.628l-.22-.114-.042-.244c-.16-.922-.24-1.663-.24-2.425 0-6.473 5.22-11.693 11.692-11.693S43.68 21.187 43.68 27.66c0 .815-.08 1.6-.242 2.433l-.046.236-.213.11c-3.25 1.703-7.118 2.63-11.18 2.63zm0-1c3.813 0 7.44-.85 10.5-2.404.12-.684.18-1.334.18-2.007 0-5.92-4.772-10.693-10.692-10.693S21.296 21.74 21.296 27.66c0 .63.06 1.25.184 2.007 3.085 1.556 6.71 2.402 10.52 2.402zM32 14.347c-3.536 0-6.402-2.866-6.402-6.402S28.464 1.543 32 1.543s6.402 2.866 6.402 6.402-2.866 6.402-6.402 6.402zm0-1c2.983 0 5.402-2.42 5.402-5.402 0-2.984-2.42-5.402-5.402-5.402-2.983 0-5.402 2.418-5.402 5.402 0 2.983 2.42 5.402 5.402 5.402zM39.378 47.138c.678.66.678 1.752 0 2.43-.672.655-1.74.655-2.416-.002l-4.593-4.548-4.518 4.517c-.675.692-1.806.702-2.484.007-.64-.674-.624-1.73.035-2.39l5.326-5.277v-6.648c0-.918.713-1.653 1.64-1.688.96-.018 1.746.777 1.746 1.736v6.612l5.262 5.25zm-6.262-11.862c0-.406-.333-.744-.718-.738-.382.015-.67.31-.67.69v7.064l-.147.147-5.47 5.422c-.276.274-.282.712-.02.987.276.284.76.28 1.05-.018l5.226-5.225.353.35 4.943 4.895c.284.276.733.276 1.012.005.282-.282.282-.733 0-1.007l-5.56-5.547v-7.027z"/></g><path d="M0 0h64v64H0z"/></g></svg>