<svg width="100" height="100" viewBox="0 0 100 100" xmlns="http://www.w3.org/2000/svg"><title>ic-volunteer-db</title><g fill="none" fill-rule="evenodd"><path d="M71.952 96.667c.878.21 1.402.325 1.485.325.862 0 1.56-.7 1.56-1.56v-3.106c.065-.793 1.767-3.728 3.268-6.316 3.872-6.676 9.176-15.82 9.176-23.36 0-5.29-1.446-9.198-3.433-12.14.396-2.16.312-7.468.312-8.152 0-11.283-4.71-17.933-7.525-21.905-.82-1.16-1.842-2.603-1.842-3.07V4.892c0-.86-.7-1.56-1.56-1.56-.764 0-29.637-.13-36.337.436-.28-.27-.662-.437-1.082-.437-.862 0-1.56.7-1.56 1.56V13.2c-2.263-.882-5.013-.438-6.78 1.327-1.937 1.94-2.306 4.836-1.157 7.168-1.21.214-2.363.766-3.26 1.664-1.922 1.924-2.3 4.79-1.182 7.115-1.216.233-2.337.818-3.232 1.713-1.923 1.925-2.302 4.794-1.183 7.118-1.217.232-2.336.818-3.23 1.712-1.18 1.18-1.83 2.748-1.83 4.415 0 1.668.65 3.236 1.83 4.416l6.394 6.394c-1.27.488-3.145 1.782-3.556 2.242-1.027 1.145-1.592 2.624-1.592 4.164 0 3.22 2.455 5.845 5.587 6.18-.562.935-.904 2.017-.904 3.186 0 3.22 2.454 5.844 5.586 6.178-.562.937-.904 2.02-.904 3.188 0 1.063 4.536 2.958 10.83 5.07v.208c-.726 1.245-1.42 4.935-1.42 5.65v3.12c0 .863.7 1.562 1.562 1.562.09 0 .173-.117.25-.325h35.728z" fill-rule="nonzero" fill="#F16577" opacity=".2"/><g fill-rule="nonzero" fill="#F16577"><path d="M31.59 64.466c1.67 0 3.238-.65 4.417-1.83.808-.807 1.322-1.788 1.593-2.82l3.28 3.278c1.18 1.18 2.748 1.83 4.415 1.83 1.668 0 3.236-.65 4.414-1.83 1.18-1.18 1.828-2.748 1.828-4.415 0-1.67-.65-3.237-1.83-4.417l-2.817-2.817c1.053-.278 2.027-.806 2.82-1.597 1.18-1.18 1.828-2.75 1.828-4.417 0-1.668-.65-3.236-1.83-4.415l-3.922-3.922c1.054-.278 2.028-.806 2.82-1.597 1.18-1.18 1.83-2.747 1.83-4.416 0-1.668-.65-3.236-1.83-4.414l-11.07-11.072V4.894c0-.86-.7-1.56-1.562-1.56-.862 0-1.56.7-1.56 1.56V13.2c-2.263-.882-5.013-.438-6.78 1.327-1.937 1.94-2.306 4.836-1.157 7.168-1.21.214-2.363.766-3.26 1.664-1.922 1.924-2.3 4.79-1.182 7.115-1.216.233-2.337.818-3.232 1.713-1.923 1.925-2.302 4.794-1.183 7.118-1.217.232-2.336.818-3.23 1.712-1.18 1.18-1.83 2.748-1.83 4.415 0 1.668.65 3.236 1.83 4.416l12.787 12.786c1.178 1.18 2.747 1.83 4.414 1.83zm-1.75-47.732c.59-.588 1.374-.913 2.208-.913.835 0 1.62.326 2.21.914l.612.614 11.528 11.53c.59.59.915 1.373.915 2.206 0 .834-.325 1.618-.915 2.208-1.18 1.178-3.236 1.178-4.414 0L29.84 21.15c-1.215-1.217-1.215-3.198 0-4.416zm-4.415 8.832c.59-.59 1.375-.915 2.21-.915.832 0 1.616.326 2.206.916l17.662 17.66c.59.59.914 1.373.914 2.207 0 .835-.324 1.62-.914 2.21-1.18 1.177-3.236 1.177-4.415 0l-6.868-6.87-8.586-8.585-.004-.003-2.205-2.204c-1.216-1.217-1.216-3.198 0-4.414zm-4.415 8.83c.59-.59 1.374-.914 2.21-.914.83 0 1.615.323 2.203.91l8.59 8.59 13.49 13.49c.59.59.913 1.372.913 2.207 0 .833-.324 1.617-.914 2.207-1.18 1.178-3.236 1.178-4.415 0L36.01 53.81l-.003-.004-6.394-6.394-8.6-8.6c-1.22-1.218-1.22-3.2-.003-4.417zm-5.33 11.037c0-.834.326-1.617.916-2.207.59-.59 1.374-.914 2.207-.914.835 0 1.62.325 2.207.914l.9.9L33.805 56.02c1.212 1.217 1.212 3.193-.005 4.41-1.18 1.178-3.237 1.18-4.417 0L16.596 47.64c-.59-.59-.915-1.374-.915-2.21zM82.03 50.69c0 .863.698 1.562 1.56 1.562.863 0 1.562-.7 1.562-1.56 0-11.284-5.543-26.267-8.357-30.24-.82-1.16-1.842-2.602-1.842-3.07V4.894c0-.86-.7-1.56-1.56-1.56-.864 0-1.562.7-1.562 1.56v12.488c0 1.46 1.014 2.894 2.42 4.875 2.765 3.907 7.78 18.144 7.78 28.434zM35.974 85.748c-.862 0-1.56.7-1.56 1.56v8.123c0 .863.698 1.562 1.56 1.562.86 0 1.56-.7 1.56-1.56v-8.123c0-.863-.7-1.562-1.56-1.562z"/><path d="M77.38 44.18c-3.673-2.447-15.204-9.134-15.778-9.463-1.043-.52-2.2-.448-3.26.207-2.282 1.41-3.682 5.28-3.682 7.434 0 2.998 2.104 4.82 4.334 6.75.772.67 1.57 1.362 2.368 2.158l7.805 7.805c.516.52 1.005 1.008 1.072 1.155.027.087.03.42.03.746-.368.987-3.25 4.284-5.733 6.77l-17.22 15.656c-.454.446-1.412 1.108-2.022 1.108h-14.05c-1.72 0-3.12-1.4-3.12-3.122s1.4-3.122 3.12-3.122h10.928c2.144 0 4.018-1.812 4.225-2.018l10.927-10.927c.61-.61.61-1.597 0-2.207-.61-.61-1.598-.61-2.207 0L44.196 74.03c-.455.446-1.413 1.108-2.023 1.108h-15.61c-1.722 0-3.122-1.4-3.122-3.122s1.4-3.122 3.123-3.122H39.05c.862 0 1.562-.7 1.562-1.56 0-.862-.7-1.562-1.56-1.562H21.88c-1.722 0-3.122-1.4-3.122-3.122 0-.77 1.95-4.01 2.46-4.58.577-.644.522-1.63-.12-2.206-.642-.576-1.63-.52-2.203.122-1.027 1.145-3.26 5.124-3.26 6.664 0 3.22 2.456 5.845 5.588 6.18-.562.935-.904 2.017-.904 3.186 0 3.22 2.454 5.844 5.586 6.178-.562.937-.904 2.02-.904 3.188 0 3.444 2.8 6.244 6.244 6.244h14.048c2.145 0 4.018-1.812 4.173-1.967L66.69 69.997c6.702-6.702 6.702-8.362 6.702-8.91 0-2.07-.254-2.46-2.018-4.224L63.57 49.06c-.877-.88-1.757-1.64-2.533-2.312-2.14-1.852-3.255-2.89-3.255-4.39 0-1.97 1.68-4.85 2.34-4.894.117.068 11.934 6.92 15.526 9.314 4.036 2.69 8.67 6.928 8.67 15.872 0 6.7-5.267 15.783-8.753 21.793-2.49 4.294-3.69 6.422-3.69 7.866v3.12c0 .862.7 1.562 1.562 1.562.862 0 1.56-.7 1.56-1.56v-3.106c.065-.793 1.767-3.728 3.268-6.316 3.872-6.676 9.176-15.82 9.176-23.36 0-10.542-5.742-15.59-10.06-18.47z"/></g><path d="M0 0h100v100H0z"/></g></svg>
