<?xml version="1.0" encoding="utf-8"?>
<!-- Generator: Adobe Illustrator 16.0.0, SVG Export Plug-In . SVG Version: 6.00 Build 0)  -->
<!DOCTYPE svg PUBLIC "-//W3C//DTD SVG 1.1//EN" "http://www.w3.org/Graphics/SVG/1.1/DTD/svg11.dtd">
<svg version="1.1" id="Layer_1" xmlns="http://www.w3.org/2000/svg" xmlns:xlink="http://www.w3.org/1999/xlink" x="0px" y="0px"
	 width="94px" height="20px" viewBox="0 0 94 20" enable-background="new 0 0 94 20" xml:space="preserve">
<g>
	<path fill="#FFFFFF" d="M1.3911,3.0884h1.5933v11.0044h5.2734v1.3369H1.3911V3.0884z"/>
	<path fill="#FFFFFF" d="M14.8887,15.4297l-0.1284-1.1172h-0.0552c-0.4941,0.6963-1.4463,1.3184-2.71,1.3184
		c-1.7939,0-2.71-1.2637-2.71-2.5449c0-2.1426,1.9043-3.3145,5.3286-3.2959V9.6069c0-0.7324-0.2017-2.0508-2.0142-2.0508
		c-0.8242,0-1.6846,0.2563-2.3071,0.6592l-0.3662-1.062c0.7324-0.4761,1.7944-0.7871,2.9116-0.7871
		c2.71,0,3.3691,1.8491,3.3691,3.625v3.3145c0,0.7686,0.0361,1.5195,0.1465,2.124H14.8887z M14.6504,10.9072
		c-1.7578-0.0371-3.7539,0.2744-3.7539,1.9951c0,1.0439,0.6963,1.5391,1.52,1.5391c1.1538,0,1.8862-0.7324,2.1421-1.4834
		c0.0552-0.165,0.0918-0.3486,0.0918-0.5127V10.9072z"/>
	<path fill="#FFFFFF" d="M26.8291,10.9253c0,3.2778-2.2705,4.7056-4.4126,4.7056c-2.3989,0-4.248-1.7578-4.248-4.5586
		c0-2.9668,1.9409-4.7061,4.3945-4.7061C25.1084,6.3662,26.8291,8.2153,26.8291,10.9253z M19.7979,11.0166
		c0,1.9414,1.1172,3.4063,2.6919,3.4063c1.5381,0,2.6919-1.4463,2.6919-3.4424c0-1.502-0.751-3.4063-2.6553-3.4063
		S19.7979,9.332,19.7979,11.0166z"/>
	<path fill="#FFFFFF" d="M36.5005,6.5674c-0.0366,0.6406-0.0732,1.355-0.0732,2.4355v5.1455c0,2.0322-0.4028,3.2773-1.2632,4.0459
		c-0.8608,0.8057-2.106,1.0625-3.2227,1.0625c-1.0625,0-2.2344-0.2568-2.9482-0.7324l0.4028-1.2275
		c0.5859,0.3672,1.5015,0.6963,2.6001,0.6963c1.6479,0,2.8564-0.8604,2.8564-3.0947v-0.9883h-0.0366
		c-0.4946,0.8242-1.4468,1.4824-2.8198,1.4824c-2.1973,0-3.772-1.8672-3.772-4.3203c0-3.0034,1.9595-4.7061,3.9917-4.7061
		c1.5381,0,2.3804,0.8057,2.7646,1.5381h0.0371l0.0732-1.3369H36.5005z M34.834,10.0645c0-0.2744-0.0181-0.5127-0.0913-0.7324
		c-0.293-0.9336-1.0806-1.7026-2.2524-1.7026c-1.5381,0-2.6367,1.3003-2.6367,3.3511c0,1.7393,0.8789,3.1855,2.6187,3.1855
		c0.9888,0,1.8862-0.6221,2.2339-1.6475c0.0918-0.2744,0.1279-0.5859,0.1279-0.8604V10.0645z"/>
	<path fill="#FFFFFF" d="M40.7881,4.0771c0.0181,0.5493-0.3848,0.9888-1.0254,0.9888c-0.5679,0-0.9707-0.4395-0.9707-0.9888
		c0-0.5674,0.4209-1.0068,1.0068-1.0068C40.4033,3.0703,40.7881,3.5098,40.7881,4.0771z M38.9932,15.4297V6.5674h1.6113v8.8623
		H38.9932z"/>
	<path fill="#FFFFFF" d="M43.9023,6.5674l1.7393,4.9805c0.293,0.8057,0.5313,1.5381,0.7139,2.2705h0.0552
		c0.2017-0.7324,0.4575-1.4648,0.7505-2.2705l1.7217-4.9805h1.6846l-3.4795,8.8623h-1.5381l-3.3691-8.8623H43.9023z"/>
	<path fill="#FFFFFF" d="M53.8838,4.0771c0.0186,0.5493-0.3838,0.9888-1.0254,0.9888c-0.5674,0-0.9697-0.4395-0.9697-0.9888
		c0-0.5674,0.4209-1.0068,1.0068-1.0068C53.5,3.0703,53.8838,3.5098,53.8838,4.0771z M52.0898,15.4297V6.5674h1.6113v8.8623H52.0898
		z"/>
	<path fill="#FFFFFF" d="M56.375,8.9658c0-0.915-0.0186-1.666-0.0732-2.3984h1.4277l0.0918,1.4648h0.0361
		c0.4395-0.8423,1.4648-1.666,2.9297-1.666c1.2275,0,3.1318,0.7324,3.1318,3.7715v5.292h-1.6113v-5.1084
		c0-1.4287-0.5313-2.6187-2.0508-2.6187c-1.0625,0-1.8857,0.7505-2.1611,1.6479c-0.0732,0.2012-0.1094,0.4761-0.1094,0.751v5.3281
		H56.375V8.9658z"/>
	<path fill="#FFFFFF" d="M74.1758,6.5674c-0.0361,0.6406-0.0723,1.355-0.0723,2.4355v5.1455c0,2.0322-0.4033,3.2773-1.2637,4.0459
		c-0.8613,0.8057-2.1055,1.0625-3.2227,1.0625c-1.0625,0-2.2344-0.2568-2.9482-0.7324l0.4033-1.2275
		c0.5859,0.3672,1.501,0.6963,2.5996,0.6963c1.6484,0,2.8564-0.8604,2.8564-3.0947v-0.9883h-0.0361
		c-0.4951,0.8242-1.4473,1.4824-2.8203,1.4824c-2.1973,0-3.7715-1.8672-3.7715-4.3203c0-3.0034,1.959-4.7061,3.9912-4.7061
		c1.5381,0,2.3799,0.8057,2.7646,1.5381h0.0371l0.0732-1.3369H74.1758z M72.5098,10.0645c0-0.2744-0.0176-0.5127-0.0918-0.7324
		c-0.293-0.9336-1.0801-1.7026-2.252-1.7026c-1.5381,0-2.6367,1.3003-2.6367,3.3511c0,1.7393,0.8789,3.1855,2.6191,3.1855
		c0.9883,0,1.8857-0.6221,2.2334-1.6475c0.0918-0.2744,0.1279-0.5859,0.1279-0.8604V10.0645z"/>
</g>
<g>
</g>
<g>
</g>
<g>
</g>
<g>
</g>
<g>
</g>
<g>
</g>
</svg>
