<svg width="100" height="100" viewBox="0 0 100 100" xmlns="http://www.w3.org/2000/svg"><title>ic-clock-db</title><g fill="none" fill-rule="evenodd"><path d="M49.667 8c11.13 0 21.592 4.335 29.46 12.206C87 28.074 91.334 38.538 91.334 49.666c0 11.13-4.334 21.593-12.204 29.46-7.87 7.87-18.333 12.207-29.463 12.207-11.13 0-21.593-4.334-29.46-12.205C12.334 71.258 8 60.796 8 49.668c0-11.13 4.335-21.594 12.206-29.46C28.074 12.335 38.538 8 49.666 8zm7.688 23.48c-2.947 0-5.718 1.24-7.655 3.338-1.938-2.098-4.71-3.338-7.655-3.338-5.705 0-10.345 4.57-10.345 10.185 0 2.237.723 4.36 2.09 6.14L48.436 66.86c.3.39.768.62 1.265.62.496 0 .964-.23 1.264-.62l14.644-19.055c1.368-1.78 2.092-3.903 2.092-6.14 0-5.616-4.64-10.185-10.345-10.185z" fill-rule="nonzero" fill="#F16577" opacity=".2"/><g fill-rule="nonzero" fill="#F16577"><path d="M49.667 8c-11.13 0-21.593 4.336-29.46 12.207C12.334 28.074 8 38.537 8 49.667c0 11.13 4.335 21.592 12.206 29.46 7.868 7.872 18.33 12.206 29.46 12.206 11.13 0 21.593-4.336 29.463-12.207 7.87-7.867 12.203-18.33 12.203-29.46 0-11.128-4.334-21.592-12.205-29.46C71.258 12.336 60.796 8 49.668 8zm27.62 69.286C69.91 84.666 60.1 88.73 49.668 88.73c-10.434 0-20.243-4.065-27.62-11.445-7.38-7.376-11.443-17.185-11.443-27.618 0-10.434 4.064-20.243 11.443-27.62 7.376-7.38 17.185-11.443 27.62-11.443 10.435 0 20.243 4.065 27.62 11.444 7.38 7.376 11.442 17.185 11.442 27.62 0 10.432-4.063 20.24-11.442 27.618z"/><path d="M13 48h5v2.5h-5zM81.333 48h5v2.5h-5zM48 81.333h2.5v5H48zM48 13h2.5v5H48z"/></g><g fill-rule="nonzero" fill="#F16577"><path d="M58.08 30.686c-3.11 0-6.034 1.33-8.08 3.58-2.046-2.25-4.97-3.58-8.08-3.58-6.022 0-10.92 4.9-10.92 10.92 0 2.4.763 4.675 2.207 6.584l15.458 20.432c.316.418.81.664 1.335.664.525 0 1.02-.246 1.335-.664L66.793 48.19C68.237 46.28 69 44.005 69 41.606c0-6.02-4.898-10.92-10.92-10.92z" opacity=".2"/><path d="M58.08 30.686c-3.11 0-6.034 1.33-8.08 3.58-2.046-2.25-4.97-3.58-8.08-3.58-6.022 0-10.92 4.9-10.92 10.92 0 2.4.763 4.675 2.207 6.584l15.458 20.432c.316.418.81.664 1.335.664.525 0 1.02-.246 1.335-.664L66.793 48.19C68.237 46.28 69 44.005 69 41.606c0-6.02-4.898-10.92-10.92-10.92zm6.043 15.484L50 64.837 35.877 46.17c-1-1.323-1.53-2.9-1.53-4.564 0-4.175 3.397-7.57 7.572-7.57 2.744 0 5.28 1.49 6.617 3.894.296.53.856.86 1.463.86.607 0 1.167-.33 1.463-.86 1.337-2.403 3.873-3.895 6.618-3.895 4.176 0 7.572 3.396 7.572 7.57 0 1.664-.528 3.242-1.53 4.565z"/></g><path d="M0 0h100v100H0z"/></g></svg>