<?xml version="1.0" encoding="UTF-8"?>
<svg width="10px" height="20px" viewBox="0 0 10 20" version="1.1" xmlns="http://www.w3.org/2000/svg" xmlns:xlink="http://www.w3.org/1999/xlink">
    <!-- Generator: Sketch 43.1 (39012) - http://www.bohemiancoding.com/sketch -->
    <title>ic-facebook-gray</title>
    <desc>Created with Sketch.</desc>
    <defs></defs>
    <g id="✨-Styleguide" stroke="none" stroke-width="1" fill="none" fill-rule="evenodd">
        <g id="Styleguide" transform="translate(-795.000000, -2515.000000)">
            <g id="Icons" transform="translate(0.000000, 2408.000000)">
                <g id="ic-facebook-gray" transform="translate(788.000000, 105.000000)">
                    <rect id="Bound" x="0" y="0" width="24" height="24"></rect>
                    <g id="facebook" transform="translate(7.000000, 2.000000)" fill-rule="nonzero" fill="#CCCCCC">
                        <path d="M10,0 L10,0 L10,0 L10,4 L8,4 C7.31,4 7,4.81 7,5.5 L7,8 L7,8 L10,8 L10,12 L7,12 L7,20 L3,20 L3,12 L0,12 L0,8 L3,8 L3,4 C3,1.790861 4.790861,4.4408921e-16 7,0 L10,0 Z" id="Shape"></path>
                    </g>
                </g>
            </g>
        </g>
    </g>
</svg>