<svg width="64" height="64" viewBox="0 0 64 64" xmlns="http://www.w3.org/2000/svg"><title>ic-indi</title><g fill="none" fill-rule="evenodd"><path d="M0 0h64v64H0z"/><g opacity=".2" fill="#F16577"><path d="M14 17c0-7.732 6.268-14 14-14s14 6.268 14 14-6.268 16-14 16-14-8.268-14-16zM38.88 41.548C35.692 41.024 32.284 41 28 41c-11.14 0-18.494 2.33-22.453 4.087C3.38 46.047 2 48.197 2 50.567V61h48l-2.385-.82s-7.025-6.274-8.736-9.663c-1.712-3.39 0-8.97 0-8.97z"/></g><g stroke="#F16577" stroke-width="2"><path d="M14 17c0-7.732 6.268-14 14-14s14 6.268 14 14-6.268 16-14 16-14-8.268-14-16z" stroke-linecap="square"/><path d="M39.195 41.87C36.01 41.344 32.285 41 28 41c-11.14 0-18.494 2.33-22.453 4.087C3.38 46.047 2 48.197 2 50.567V61h37"/></g><g fill-rule="nonzero" fill="#F16577"><path d="M62.125 45.89c0-4.214-3.427-7.64-7.638-7.64-2.96 0-5.678 1.733-6.928 4.415-.163.348-.013.76.335.923.347.163.76.01.923-.336 1.023-2.195-.79-3.1-.637-3.45.155-.35-.005-.76-.357-.914-.966-.423-1.996-.638-3.06-.638-4.21 0-7.638 3.426-7.638 7.64 0 4.483 4.264 11.575 12.168 15.886.103.057.218.085.332.085.115 0 .23-.027.333-.084 7.903-4.31 12.167-11.402 12.167-15.887z" opacity=".2"/><path d="M62.125 45.89c0-4.214-3.427-7.64-7.638-7.64-2.96 0-5.678 1.733-6.928 4.415-.163.348-.013.76.335.923.347.163.76.01.923-.336 1.023-2.195 3.248-3.613 5.67-3.613 3.445 0 6.248 2.802 6.248 6.25 0 4.076-4.148 10.554-11.11 14.482-6.964-3.928-11.112-10.406-11.112-14.483 0-3.448 2.803-6.25 6.25-6.25.87 0 3.227.93 4.017 1.277.353.154.763-.006.916-.357.154-.352-.006-.76-.358-.915-.966-.423-3.51-1.395-4.574-1.395-4.212 0-7.64 3.426-7.64 7.64 0 4.483 4.265 11.575 12.17 15.886.102.057.217.085.33.085.116 0 .23-.027.334-.084 7.903-4.31 12.167-11.402 12.167-15.887z" stroke="#F16577" stroke-width=".5"/></g></g></svg>