<?xml version="1.0" encoding="UTF-8" standalone="no"?>
<svg width="24px" height="24px" viewBox="0 0 24 24" version="1.1" xmlns="http://www.w3.org/2000/svg" xmlns:xlink="http://www.w3.org/1999/xlink">
    <!-- Generator: Sketch 43.2 (39069) - http://www.bohemiancoding.com/sketch -->
    <title>ic-upload image</title>
    <desc>Created with Sketch.</desc>
    <defs></defs>
    <g id="✨-Styleguide" stroke="none" stroke-width="1" fill="none" fill-rule="evenodd">
        <g id="Styleguide" transform="translate(-915.000000, -2921.000000)">
            <g id="ic-upload-image" transform="translate(915.000000, 2921.000000)">
                <circle id="Oval" fill="#6BC1CC" cx="12" cy="12" r="12"></circle>
                <path d="M12,10.9 C12.5784751,10.9 13.0730882,11.1053799 13.4838542,11.5161458 C13.8946201,11.9269118 14.1,12.4215249 14.1,13 C14.1,13.5784751 13.8946201,14.0730882 13.4838542,14.4838542 C13.0730882,14.8946201 12.5784751,15.1 12,15.1 C11.4215249,15.1 10.9269118,14.8946201 10.5161458,14.4838542 C10.1053799,14.0730882 9.9,13.5784751 9.9,13 C9.9,12.4215249 10.1053799,11.9269118 10.5161458,11.5161458 C10.9269118,11.1053799 11.4215249,10.9 12,10.9 Z M17.1333333,7.86666667 C17.6486137,7.86666667 18.0885398,8.04895651 18.453125,8.41354167 C18.8177102,8.77812682 19,9.21805298 19,9.73333333 L19,16.2666667 C19,16.781947 18.8177102,17.2218732 18.453125,17.5864583 C18.0885398,17.9510435 17.6486137,18.1333333 17.1333333,18.1333333 L6.86666667,18.1333333 C6.35138631,18.1333333 5.91146016,17.9510435 5.546875,17.5864583 C5.18228984,17.2218732 5,16.781947 5,16.2666667 L5,9.73333333 C5,9.21805298 5.18228984,8.77812682 5.546875,8.41354167 C5.91146016,8.04895651 6.35138631,7.86666667 6.86666667,7.86666667 L8.5,7.86666667 L8.871875,6.875 C8.96423657,6.63680436 9.13315849,6.43142447 9.37864583,6.25885417 C9.62413317,6.08628386 9.87569316,6 10.1333333,6 L13.8666667,6 C14.1243068,6 14.3758668,6.08628386 14.6213542,6.25885417 C14.8668415,6.43142447 15.0357634,6.63680436 15.128125,6.875 L15.5,7.86666667 L17.1333333,7.86666667 Z M12,16.2666667 C12.8993101,16.2666667 13.6685732,15.9470518 14.3078125,15.3078125 C14.9470518,14.6685732 15.2666667,13.8993101 15.2666667,13 C15.2666667,12.1006899 14.9470518,11.3314268 14.3078125,10.6921875 C13.6685732,10.0529482 12.8993101,9.73333333 12,9.73333333 C11.1006899,9.73333333 10.3314268,10.0529482 9.6921875,10.6921875 C9.05294819,11.3314268 8.73333333,12.1006899 8.73333333,13 C8.73333333,13.8993101 9.05294819,14.6685732 9.6921875,15.3078125 C10.3314268,15.9470518 11.1006899,16.2666667 12,16.2666667 Z" id="camera---FontAwesome" fill="#FFFFFF"></path>
            </g>
        </g>
    </g>
</svg>