<svg width="100" height="100" viewBox="0 0 100 100" xmlns="http://www.w3.org/2000/svg"><title>ic-volunteering-db</title><g fill="none" fill-rule="evenodd"><g fill-rule="nonzero" fill="#F16577"><path d="M58.432 23.574l-.596-.374.01-2.704c.118-7.65 6.35-13.803 14.007-13.805 7.742 0 14.018 6.276 14.018 14.018 0 7.742-6.275 14.017-14.017 14.017-2.063 0-4.067-.458-5.924-1.326l-2.642-.3-.073-.705c-1.25-4.33-1.764-5.464-4.783-8.82zm9.177 7.83c1.35.54 2.778.82 4.243.82 6.362 0 11.518-5.155 11.518-11.516 0-6.36-5.155-11.517-11.517-11.517-6.064.002-11.04 4.7-11.477 10.67 0 5.69 1.454 7.804 7.233 11.543zM50.73 47.905c-7.742 0-14.02-6.276-14.02-14.016s6.278-14.018 14.02-14.018c7.74 0 14.018 6.276 14.018 14.017 0 7.74-6.276 14.016-14.018 14.016zm0-2.5c6.36 0 11.518-5.156 11.518-11.517 0-6.362-5.157-11.518-11.518-11.518-6.36 0-11.52 5.158-11.52 11.518s5.16 11.516 11.52 11.516zm44.04 18.652l-2.496-.1.09 9 1.6-.008.805-8.892zm-.917 10.125l-.622.312c-.324.163-.798.377-1.452.637-1.01.402-2.178.8-3.503 1.178-3.68 1.046-7.923 1.742-12.692 1.916l-4.296.048v-14.38c0-8.07-5.35-15.12-12.982-17.39l-2.06-.613 1.55-1.486c2.748-2.635 4.37-6.227 4.473-10.092l.034-1.216H77.27c9.704 0 17.597 7.893 17.597 17.596v22.254l-.9.004-.112 1.233zm-1.488-23.49c0-8.323-6.773-15.097-15.096-15.097H63.695c-.334 3.398-4.674 8.57-6.816 11.162 7.682 3.108 15.91 8.622 15.91 17.136v11.773c4.038-.236 11.648-.865 14.806-1.762 1.706-.485 3-.96 3.9-1.355.232-.102.438-.2.62-.29l.56 1.118-1.246-.113.853-9.432 2.496.1.09 9-2.5.013V50.692zM28.33 34.726c-7.743 0-14.02-6.275-14.02-14.016 0-7.74 6.276-14.016 14.02-14.016 7.74 0 14.014 6.276 14.014 14.017 0 .173-.006.312-.023.563l-.013.224-.787 2.016c-2.934 2.28-4.6 6.49-5.165 10.183l-.087.563-2.482.303c-2.93.164-2.79.164-5.457.164zM39.843 20.71c0-6.36-5.156-11.516-11.515-11.516-6.363 0-11.52 5.155-11.52 11.517 0 6.36 5.157 11.517 11.52 11.517 2.005 0 3.936-.522 5.654-1.498 3.273-2.37 5.557-5.242 5.86-9.928v-.09zm3.816 23.694l1.55 1.487-2.06.614c-7.632 2.27-12.98 9.32-12.982 17.39V77.22l-4.323-.076c-5.953-.35-12.18-1.478-18.712-3.516l-1.783-.563-.004-.912-.034-8.21v-13.25c0-9.704 7.894-17.597 17.598-17.597h10.833c.296 0 .58.013.97.04l.244.02 4.2.087.034 1.125c.122 3.845 1.74 7.417 4.47 10.036zm-4.893-8.808H22.91c-8.324 0-15.098 6.774-15.098 15.096v13.246l.03 7.292c5.888 1.838 15.476 2.91 20.826 3.327V63.894c.002-8.515 8.23-14.027 15.914-17.136-2.14-2.59-5.48-7.763-5.815-11.162z"/><path d="M73.646 77.228l-2.495-.09.092 10 1.595-.008.81-9.902zm-.91 11.127l-.62.316c-.34.174-.896.424-1.637.713-1.143.446-2.468.883-3.968 1.285-4.173 1.12-8.98 1.783-14.372 1.783-7.043 0-14.59-1.138-22.6-3.64l-1.65-.516-.157-.97-.016-.2v-23.25c0-9.704 7.893-17.598 17.597-17.598h10.834c9.705 0 17.597 7.895 17.594 17.6v23.25l-.905.004-.1 1.225zm-1.494-24.48c.003-8.324-6.77-15.1-15.094-15.1H45.314c-8.323 0-15.097 6.776-15.097 15.1v23.25h-1.25l1.234-.2.034.206-1.234.2.374-1.192.912.286c7.766 2.426 15.062 3.527 21.854 3.527 5.168 0 9.758-.633 13.725-1.696 1.41-.378 2.647-.787 3.704-1.2.302-.118.567-.227.79-.324.268-.116.476-.213.62-.287l.568 1.114-1.246-.102.853-10.43 2.496.09.092 10-2.5.01v-23.25z"/></g><g fill-opacity=".2" fill="#F16577"><path d="M56.585 47.964c9.014 0 16.348 7.334 16.344 16.348v23.25l-.092-10-.853 10.433c-.43.218-7.393 3.644-19.408 3.644-6.15 0-13.624-.898-22.227-3.585l-.912-.286-.034-.21V64.313c0-9.014 7.333-16.348 16.348-16.348h10.833zM64 65.64c0-4.214-3.427-7.64-7.638-7.64-2.96 0-5.678 1.733-6.928 4.415-.162.348-.012.76.336.923.347.163.76.01.923-.336 1.023-2.195-.79-3.1-.637-3.45.154-.35-.006-.76-.358-.914-.966-.423-1.996-.638-3.06-.638C42.43 58 39 61.426 39 65.64c0 4.483 4.264 11.575 12.168 15.886.103.057.218.085.332.085.115 0 .23-.027.333-.084C59.736 77.216 64 70.124 64 65.64z"/><path d="M58.534 20.574c2.064 5.822 4.365 8.51 7.36 11.752 1.643.767 3.465 1.208 5.397 1.208 7.053 0 12.768-5.716 12.768-12.766C84.058 13.716 78.343 8 71.29 8c-6.984.002-12.65 5.616-12.756 12.574zM50.17 46.716c7.05 0 12.767-5.717 12.767-12.768 0-7.05-5.717-12.766-12.768-12.766-7.05 0-12.77 5.716-12.77 12.767 0 7.05 5.72 12.766 12.77 12.766zm26.54-12.31H63.957c-.116 4.3-2.952 9.174-5.856 11.96 7.48 4.294 14.232 9.355 15.875 17.588l-1 13.083c10.614-.39 18.73-3.398 19.134-3.6l.854-9.432.09 9V50.752c0-9.013-7.333-16.347-16.345-16.347zm-48.944-.87c2.498 0 4.822-.73 6.79-1.97 3.81-1.94 5.94-5.136 5.94-10.078.013-.24.036-.476.036-.717 0-7.05-5.717-12.767-12.766-12.767C20.713 8.003 15 13.72 15 20.77c0 7.05 5.713 12.766 12.766 12.766zm17.466 11.83c-2.89-2.772-5.72-6.625-5.853-10.9-.4-.03-5.794-.06-6.2-.06H22.347C13.333 34.405 6 41.738 6 50.75v13.25l.034 8.205.912.288c6.9 2.154 17.06 3.147 22.41 3.46v-12c.002-8.777 8.658-13.795 15.876-18.59z" fill-rule="nonzero"/></g><g fill-rule="nonzero" fill="#F16577"><path d="M63 65.64c0-4.214-3.427-7.64-7.638-7.64-2.96 0-5.678 1.733-6.928 4.415-.162.348-.012.76.336.923.347.163.76.01.923-.336 1.023-2.195-.79-3.1-.637-3.45.154-.35-.006-.76-.358-.914-.966-.423-1.996-.638-3.06-.638C41.43 58 38 61.426 38 65.64c0 4.483 4.264 11.575 12.168 15.886.103.057.218.085.332.085.115 0 .23-.027.333-.084C58.736 77.216 63 70.124 63 65.64z" opacity=".2"/><path d="M63 65.64c0-4.214-3.427-7.64-7.638-7.64-2.96 0-5.678 1.733-6.928 4.415-.162.348-.012.76.336.923.347.163.76.01.923-.336 1.023-2.195 3.248-3.613 5.67-3.613 3.445 0 6.248 2.802 6.248 6.25 0 4.076-4.147 10.554-11.11 14.482-6.963-3.928-11.11-10.406-11.11-14.483 0-3.448 2.802-6.25 6.25-6.25.87 0 3.226.93 4.016 1.277.352.154.762-.006.915-.357.155-.352-.005-.76-.357-.915-.966-.423-3.51-1.395-4.574-1.395-4.213 0-7.64 3.426-7.64 7.64 0 4.483 4.264 11.575 12.168 15.886.103.057.218.085.332.085.115 0 .23-.027.333-.084C58.736 77.216 63 70.124 63 65.64z"/></g><path d="M0 0h100v100H0z"/></g></svg>